<?xml version="1.0" standalone="no"?>
<!DOCTYPE svg PUBLIC "-//W3C//DTD SVG 20010904//EN"
 "http://www.w3.org/TR/2001/REC-SVG-20010904/DTD/svg10.dtd">
<svg version="1.0" xmlns="http://www.w3.org/2000/svg"
 width="1555.000000pt" height="1555.000000pt" viewBox="0 0 1555.000000 1555.000000"
 preserveAspectRatio="xMidYMid meet">
<metadata>
Created by potrace 1.11, written by Peter Selinger 2001-2013
</metadata>
<g transform="translate(0.000000,1555.000000) scale(0.100000,-0.100000)"
fill="#000000" stroke="none">
<path d="M8340 15432 c0 -4 -17 -8 -37 -9 -150 -5 -324 -14 -353 -18 -19 -3
-78 -7 -130 -9 -224 -10 -462 -29 -565 -47 -59 -10 -203 -28 -257 -32 -16 -1
-28 -4 -28 -8 0 -3 -25 -6 -56 -7 -31 -1 -62 -6 -70 -13 -8 -6 -25 -9 -39 -7
-14 3 -25 2 -25 -1 0 -4 -12 -7 -27 -6 -16 0 -31 -3 -34 -7 -3 -5 -55 -18
-115 -29 -123 -24 -124 -24 -144 -32 -8 -3 -22 -5 -30 -6 -33 0 -56 -7 -68
-18 -8 -8 -39 -13 -73 -13 -33 0 -59 -4 -59 -10 0 -5 -11 -10 -25 -10 -14 0
-25 -4 -25 -8 0 -5 -6 -9 -12 -9 -7 0 -49 -10 -93 -21 -44 -12 -116 -28 -160
-37 -44 -8 -89 -19 -100 -24 -55 -25 -107 -41 -116 -36 -5 4 -9 1 -9 -5 0 -7
-7 -10 -15 -6 -8 3 -15 1 -15 -4 0 -6 -11 -10 -25 -10 -14 0 -25 -4 -25 -8 0
-7 -19 -11 -80 -15 -14 -1 -28 -6 -32 -12 -4 -5 -11 -10 -15 -11 -4 0 -26 -4
-48 -9 -22 -5 -43 -8 -47 -7 -5 1 -8 -3 -8 -9 0 -6 -7 -9 -15 -5 -8 3 -15 2
-15 -3 0 -10 -35 -20 -90 -28 -19 -3 -38 -10 -42 -17 -4 -6 -8 -7 -8 -1 0 5
-5 4 -12 -3 -7 -7 -25 -12 -40 -12 -15 0 -28 -4 -28 -8 0 -12 -50 -33 -61 -27
-5 4 -9 2 -9 -4 0 -6 -12 -14 -27 -17 -16 -4 -32 -10 -38 -14 -5 -4 -50 -20
-100 -35 -49 -15 -105 -34 -123 -42 -18 -8 -38 -11 -45 -7 -6 4 -9 4 -5 -1 12
-12 -23 -34 -55 -35 -15 0 -30 -7 -33 -15 -4 -8 -15 -15 -26 -15 -10 0 -38 -9
-60 -20 -23 -11 -54 -20 -70 -20 -18 0 -28 -5 -28 -15 0 -9 -9 -15 -25 -15
-14 0 -25 -4 -25 -10 0 -5 -6 -10 -14 -10 -7 0 -24 -10 -38 -23 -14 -13 -30
-21 -36 -19 -7 2 -12 -1 -12 -7 0 -6 -7 -8 -15 -5 -8 4 -15 2 -15 -4 0 -10
-60 -38 -72 -34 -5 1 -8 -3 -8 -9 0 -5 -5 -7 -11 -4 -6 4 -21 -3 -34 -15 -13
-12 -28 -19 -34 -15 -6 3 -11 2 -11 -3 0 -10 -70 -33 -81 -27 -4 3 -10 -2 -13
-11 -3 -8 -10 -12 -16 -9 -5 3 -10 2 -10 -2 0 -5 -10 -10 -22 -10 -13 -1 -28
-9 -34 -18 -6 -8 -18 -15 -25 -15 -8 0 -21 -9 -29 -20 -8 -11 -20 -20 -27 -20
-7 0 -13 -5 -13 -12 0 -6 -3 -8 -7 -5 -3 4 -12 2 -20 -5 -7 -6 -16 -8 -19 -5
-4 3 -13 -1 -21 -9 -8 -8 -19 -12 -24 -9 -5 4 -9 1 -9 -4 0 -6 -7 -11 -15 -11
-8 0 -15 -4 -15 -10 0 -5 -7 -7 -15 -4 -8 4 -15 2 -15 -4 0 -5 -11 -13 -25
-16 -14 -4 -23 -11 -20 -16 3 -6 -1 -10 -9 -10 -8 0 -22 -7 -30 -16 -9 -8 -16
-12 -16 -8 0 3 -7 1 -15 -6 -8 -6 -18 -9 -23 -6 -6 3 -12 -4 -15 -15 -4 -15
-11 -20 -22 -15 -10 3 -14 2 -10 -4 4 -6 -7 -15 -24 -21 -17 -6 -31 -15 -31
-20 0 -5 -7 -9 -15 -9 -14 0 -37 -16 -71 -48 -8 -7 -18 -10 -24 -7 -5 3 -22
-7 -36 -22 -14 -15 -33 -27 -41 -25 -8 2 -12 -1 -9 -7 3 -5 -9 -14 -28 -21
-19 -6 -40 -18 -47 -26 -7 -8 -18 -13 -24 -10 -7 2 -25 -9 -41 -25 -15 -16
-36 -29 -46 -29 -10 0 -18 -4 -18 -10 0 -5 -6 -10 -13 -10 -7 0 -19 -9 -27
-20 -8 -11 -19 -20 -26 -20 -6 0 -33 -20 -60 -45 -27 -24 -55 -45 -62 -45 -7
0 -11 -4 -8 -9 3 -5 -12 -18 -34 -29 -22 -10 -37 -22 -33 -26 3 -3 -1 -6 -10
-6 -9 0 -22 -9 -29 -20 -7 -11 -19 -20 -26 -20 -6 0 -20 -9 -29 -20 -10 -11
-23 -20 -30 -20 -7 0 -13 -7 -13 -15 0 -13 -18 -20 -42 -16 -5 0 -7 -2 -7 -7
4 -21 -3 -34 -14 -29 -8 3 -20 -3 -28 -14 -7 -10 -19 -19 -25 -19 -6 0 -18 -8
-25 -17 -12 -14 -12 -16 0 -8 10 5 12 4 7 -3 -4 -7 -14 -12 -22 -12 -8 0 -14
-6 -14 -14 0 -8 -8 -17 -18 -21 -11 -3 -24 -17 -30 -30 -6 -14 -18 -25 -26
-25 -9 0 -13 -6 -10 -15 4 -10 -6 -20 -30 -32 -20 -9 -38 -25 -42 -35 -3 -10
-9 -18 -14 -18 -5 0 -20 -16 -33 -35 -13 -19 -26 -32 -29 -29 -3 2 -8 -7 -12
-21 -4 -14 -11 -25 -17 -25 -6 0 -8 -4 -4 -9 3 -5 -4 -12 -15 -16 -11 -4 -18
-10 -15 -15 3 -5 -4 -11 -15 -15 -11 -4 -18 -11 -15 -16 4 -5 -3 -13 -14 -17
-11 -4 -21 -11 -22 -17 -6 -33 -22 -64 -30 -59 -5 3 -9 -2 -9 -10 0 -9 -6 -15
-12 -13 -7 1 -12 -6 -10 -15 2 -10 -1 -18 -6 -18 -5 0 -17 -16 -28 -35 -10
-19 -26 -37 -35 -40 -9 -3 -16 -13 -15 -23 0 -9 -5 -16 -11 -15 -7 2 -13 -3
-13 -11 0 -8 -7 -16 -15 -20 -8 -3 -15 -12 -15 -21 0 -8 -4 -15 -10 -15 -5 0
-12 -11 -16 -25 -3 -14 -12 -25 -20 -25 -8 0 -14 -6 -14 -14 0 -7 -11 -25 -25
-40 -14 -15 -25 -32 -25 -37 0 -6 -4 -8 -9 -5 -5 3 -12 -5 -15 -18 -3 -14 -15
-28 -26 -31 -11 -4 -18 -10 -15 -15 3 -5 -2 -13 -10 -17 -9 -5 -24 -25 -33
-44 -10 -19 -23 -33 -29 -32 -6 1 -14 -8 -17 -21 -4 -16 -15 -25 -35 -29 -23
-5 -28 -10 -26 -32 2 -14 -1 -23 -6 -19 -5 3 -9 -2 -9 -10 0 -9 -4 -16 -10
-16 -5 0 -10 -7 -10 -15 0 -8 -4 -15 -9 -15 -5 0 -13 -9 -16 -20 -4 -11 -11
-18 -16 -15 -5 3 -6 -1 -3 -9 3 -9 1 -16 -5 -16 -6 0 -11 -7 -11 -16 0 -9 -5
-12 -12 -8 -8 5 -9 2 -5 -9 3 -10 2 -17 -3 -17 -6 0 -10 -9 -10 -20 0 -11 -4
-20 -10 -20 -5 0 -10 -7 -10 -15 0 -8 -5 -15 -11 -15 -5 0 -7 -5 -3 -12 5 -8
2 -9 -12 -4 -10 4 -15 4 -11 0 4 -4 1 -14 -6 -22 -10 -13 -9 -15 3 -8 8 4 5
-1 -8 -10 -12 -9 -22 -25 -22 -36 0 -10 -7 -21 -15 -24 -8 -4 -15 -14 -15 -23
0 -9 -14 -31 -30 -50 -17 -18 -28 -37 -25 -42 4 -5 -1 -9 -10 -9 -12 0 -15 -5
-11 -17 4 -10 4 -14 0 -10 -4 4 -15 -11 -25 -33 -10 -22 -23 -40 -30 -40 -7 0
-9 -3 -6 -7 4 -3 -1 -12 -11 -20 -9 -8 -12 -12 -5 -8 7 3 0 -17 -14 -44 -15
-27 -30 -48 -34 -45 -4 2 -10 -3 -13 -12 -3 -8 -2 -12 4 -9 6 3 7 -1 4 -9 -3
-9 -11 -13 -17 -9 -6 4 -8 0 -4 -10 3 -10 2 -17 -3 -17 -4 0 -11 -13 -15 -29
-3 -16 -13 -32 -21 -35 -9 -3 -13 -10 -10 -15 4 -5 -2 -17 -11 -27 -10 -10
-17 -20 -17 -23 1 -3 -2 -5 -7 -4 -4 2 -5 -5 -2 -14 5 -12 3 -14 -7 -8 -8 5
-11 4 -6 -3 3 -6 0 -17 -8 -25 -8 -8 -12 -18 -8 -22 4 -3 0 -12 -9 -18 -9 -7
-19 -22 -23 -35 -4 -12 -12 -20 -17 -17 -5 4 -9 -8 -9 -25 0 -18 -6 -33 -15
-36 -8 -4 -13 -10 -10 -14 7 -11 -5 -41 -14 -36 -4 3 -8 -5 -8 -17 -1 -12 -7
-23 -13 -25 -5 -2 -8 -8 -4 -13 3 -5 1 -9 -3 -9 -10 0 -38 -70 -35 -84 2 -5
-3 -6 -11 -3 -10 4 -13 -3 -12 -24 1 -17 -3 -29 -11 -29 -7 0 -11 -8 -10 -17
3 -18 -20 -69 -35 -78 -5 -4 -7 -11 -4 -16 4 -5 1 -9 -5 -9 -6 0 -10 -6 -9
-12 1 -7 -3 -26 -9 -41 -7 -16 -12 -33 -12 -38 0 -5 -5 -9 -10 -9 -6 0 -9 -6
-8 -12 2 -7 -2 -12 -9 -11 -7 2 -10 -3 -7 -11 3 -8 0 -17 -5 -21 -6 -3 -9 -11
-6 -16 4 -5 1 -9 -4 -9 -6 0 -11 -11 -11 -24 0 -13 -7 -27 -16 -30 -10 -4 -14
-12 -10 -22 3 -8 -1 -22 -9 -30 -8 -9 -15 -23 -15 -32 0 -28 -36 -113 -44
-105 -4 4 -4 -1 0 -11 6 -15 4 -17 -6 -11 -9 5 -11 4 -6 -3 4 -7 4 -18 -1 -24
-4 -7 -9 -21 -10 -32 -2 -10 -12 -31 -24 -47 -11 -16 -18 -29 -16 -29 3 0 -11
-37 -30 -82 -19 -46 -39 -105 -44 -131 -10 -54 -59 -167 -72 -167 -4 0 -5 -5
-2 -10 3 -6 -1 -17 -9 -26 -9 -9 -14 -20 -10 -25 3 -6 -1 -21 -10 -34 -9 -13
-16 -35 -16 -47 0 -13 -7 -34 -16 -46 -8 -12 -12 -22 -7 -22 4 0 1 -6 -7 -13
-8 -7 -15 -23 -16 -37 -1 -32 -7 -64 -14 -70 -8 -7 -61 -182 -63 -208 -1 -12
-5 -22 -9 -22 -4 0 -5 -6 -2 -14 3 -8 0 -17 -5 -21 -6 -3 -9 -11 -5 -16 3 -5
1 -16 -5 -23 -6 -7 -13 -48 -16 -92 -7 -93 -13 -117 -27 -108 -7 5 -8 2 -2 -7
10 -16 12 -189 2 -189 -3 0 -5 -11 -3 -25 1 -14 -1 -25 -4 -25 -4 0 -6 -31 -6
-70 1 -38 -2 -70 -6 -70 -4 0 -6 -18 -3 -40 3 -22 1 -40 -3 -40 -4 0 -8 -28
-8 -62 0 -35 -3 -94 -8 -133 -10 -97 -19 -310 -17 -430 0 -55 0 -113 0 -130
-1 -16 -1 -37 -1 -45 1 -8 4 -67 6 -130 3 -63 7 -157 10 -207 5 -77 4 -92 -8
-88 -8 4 -14 -1 -14 -10 0 -9 6 -14 13 -11 17 6 27 -40 14 -64 -13 -24 -13
-33 0 -25 6 3 10 0 10 -7 1 -16 8 -73 20 -148 4 -30 7 -70 5 -87 -1 -18 1 -33
6 -33 5 0 9 -12 10 -27 0 -58 4 -93 10 -93 4 0 6 -18 5 -41 -1 -22 2 -43 6
-45 5 -3 3 -12 -3 -21 -10 -12 -10 -16 2 -23 8 -5 15 -17 16 -27 4 -41 14
-101 23 -148 6 -27 11 -62 12 -77 1 -15 5 -25 10 -22 4 3 8 -12 8 -33 0 -21 6
-55 13 -76 8 -21 13 -60 13 -86 -1 -27 3 -47 8 -44 5 3 7 -8 4 -26 -2 -17 -1
-31 4 -31 5 0 8 -8 6 -17 -1 -10 1 -23 4 -29 7 -10 20 -96 22 -136 0 -10 3
-18 7 -18 8 0 15 -30 24 -90 4 -33 13 -69 36 -150 6 -19 15 -55 21 -79 6 -24
19 -58 29 -75 10 -17 19 -48 19 -68 0 -21 4 -38 8 -38 4 0 13 -17 19 -37 6
-21 20 -63 32 -93 12 -30 21 -63 21 -73 0 -10 4 -15 10 -12 5 3 10 -3 10 -14
0 -12 0 -23 0 -26 0 -3 9 -21 20 -41 11 -19 18 -39 15 -45 -4 -5 -2 -9 3 -9 6
0 8 -9 5 -20 -3 -13 1 -22 11 -26 11 -4 15 -13 10 -26 -4 -13 -2 -18 4 -14 9
5 28 -39 24 -57 -1 -4 7 -17 18 -29 11 -12 18 -28 16 -35 -3 -7 -2 -13 3 -13
4 0 8 -6 9 -12 2 -32 9 -50 21 -58 8 -4 11 -14 9 -21 -3 -8 3 -25 14 -38 10
-14 16 -32 13 -43 -4 -12 -1 -18 9 -18 9 0 15 -3 14 -7 -2 -7 15 -47 64 -150
11 -23 17 -47 13 -53 -3 -5 0 -10 8 -10 13 0 27 -24 31 -55 1 -5 7 -20 14 -32
7 -12 12 -31 12 -43 0 -12 4 -19 9 -15 8 4 38 -64 32 -73 -1 -1 5 -9 13 -18 8
-8 13 -21 10 -29 -4 -8 -1 -15 6 -15 6 0 8 -4 5 -10 -3 -5 -2 -10 3 -10 12 0
45 -50 45 -67 0 -7 4 -13 9 -13 5 0 6 -4 3 -10 -3 -5 -1 -10 5 -10 6 0 9 -4 6
-9 -3 -5 1 -12 10 -15 10 -4 13 -13 9 -26 -5 -14 -2 -20 9 -20 9 0 16 -9 16
-20 0 -11 5 -20 11 -20 6 0 9 -7 5 -15 -3 -8 -1 -15 5 -15 6 0 8 -4 5 -9 -3
-4 3 -19 15 -32 11 -12 18 -28 15 -35 -2 -6 9 -26 25 -43 16 -18 29 -35 29
-39 0 -3 17 -22 38 -42 21 -19 37 -41 34 -48 -2 -7 2 -10 11 -6 11 4 21 -5 32
-25 8 -17 13 -31 10 -31 -11 0 28 -35 39 -35 6 0 10 -8 8 -18 -2 -9 2 -17 8
-17 5 0 9 -3 9 -7 -4 -23 2 -43 11 -38 6 3 10 2 10 -4 0 -5 9 -12 19 -16 11
-3 23 -15 26 -26 4 -10 11 -17 16 -13 6 3 9 0 8 -7 -5 -29 31 -85 46 -71 5 4
5 2 2 -5 -10 -17 3 -42 19 -36 10 3 14 -2 14 -20 0 -25 22 -52 33 -40 4 3 7
-1 7 -10 0 -9 5 -17 10 -17 6 0 10 -7 10 -15 0 -8 6 -15 14 -15 8 0 16 -10 18
-23 2 -12 9 -21 16 -19 6 1 12 -7 12 -18 0 -13 5 -18 15 -14 10 4 15 0 15 -15
0 -12 6 -21 14 -21 8 0 18 -9 21 -20 4 -11 10 -18 14 -15 5 2 13 -7 20 -22 6
-14 14 -23 18 -20 7 8 33 -18 33 -32 0 -6 5 -11 11 -11 5 0 8 -4 5 -9 -3 -5 2
-8 12 -7 10 0 16 -6 16 -16 -1 -10 5 -18 13 -18 9 0 13 -6 9 -15 -5 -13 5 -20
27 -16 4 0 7 -6 7 -15 0 -8 5 -12 10 -9 6 3 13 -2 17 -12 3 -10 22 -32 40 -50
21 -19 32 -37 27 -44 -4 -7 -3 -9 3 -6 6 4 18 -2 28 -13 10 -11 15 -20 10 -20
-4 0 -2 -6 4 -13 6 -8 8 -17 4 -20 -3 -4 2 -7 13 -7 23 -1 57 -27 73 -59 7
-13 18 -20 27 -17 8 3 14 -1 14 -10 0 -8 11 -20 25 -26 14 -6 25 -19 25 -29 0
-13 5 -16 16 -12 12 4 15 2 12 -8 -5 -15 8 -32 32 -42 9 -3 10 -6 3 -6 -19 -1
-16 -15 8 -29 17 -11 20 -11 14 0 -4 7 4 2 18 -12 13 -14 24 -29 23 -34 0 -5
11 -16 26 -23 16 -8 28 -21 28 -29 0 -8 5 -12 10 -9 5 3 10 0 10 -8 0 -16 35
-43 65 -49 12 -2 19 -10 17 -21 -3 -15 8 -22 30 -18 5 0 7 -3 5 -7 -3 -13 60
-63 83 -65 12 -1 20 -8 20 -19 0 -11 14 -23 35 -32 19 -8 35 -18 35 -21 0 -3
-5 -3 -12 1 -7 4 -8 3 -4 -4 4 -7 14 -12 23 -12 8 0 32 -17 52 -38 20 -21 44
-41 54 -45 9 -3 17 -14 17 -23 0 -10 5 -14 15 -10 10 4 15 -1 15 -15 0 -11 4
-18 9 -14 14 8 61 -16 61 -33 0 -8 6 -12 15 -8 8 3 20 0 27 -7 7 -7 25 -18 41
-26 15 -8 27 -20 27 -27 0 -8 8 -10 22 -6 14 3 19 2 14 -6 -5 -8 0 -12 13 -12
11 0 26 -6 33 -13 7 -8 19 -12 26 -9 6 2 12 -4 12 -12 0 -10 12 -19 30 -22 17
-4 30 -9 30 -13 0 -4 14 -15 30 -24 17 -10 30 -15 30 -11 0 4 8 0 18 -9 10
-10 22 -14 25 -11 4 4 9 -1 13 -10 3 -9 10 -14 15 -11 4 3 13 -4 19 -15 6 -11
20 -20 30 -20 11 0 19 -5 17 -11 -1 -7 13 -16 31 -21 17 -5 32 -15 32 -23 0
-8 6 -12 13 -9 8 3 29 -9 46 -26 18 -16 37 -30 41 -30 4 0 11 -7 14 -16 3 -9
13 -14 21 -10 8 3 20 -1 27 -8 7 -7 35 -25 61 -41 27 -15 51 -34 54 -40 2 -7
13 -10 25 -7 14 3 19 1 14 -6 -3 -6 4 -14 16 -18 13 -4 29 -15 36 -25 7 -11
20 -19 28 -19 8 0 23 -9 34 -20 11 -11 22 -20 25 -20 3 0 12 0 21 0 8 0 13 -4
10 -9 -3 -5 5 -12 19 -15 13 -3 34 -16 46 -29 12 -12 19 -16 15 -10 -5 9 -2
11 8 7 9 -3 13 -10 10 -15 -3 -5 4 -9 16 -9 12 0 18 -4 15 -10 -3 -5 2 -10 13
-10 10 0 28 -9 40 -20 12 -11 28 -20 37 -20 8 0 15 -4 15 -10 0 -5 9 -10 19
-10 10 0 21 -7 25 -15 3 -10 19 -15 46 -15 22 0 40 -4 40 -9 0 -9 38 -26 83
-35 16 -4 25 -11 21 -17 -3 -6 0 -10 7 -9 24 3 59 -12 59 -25 0 -7 8 -12 18
-12 19 1 90 -31 110 -50 7 -7 16 -13 18 -13 3 0 2 6 -2 13 -6 9 -4 9 7 -1 7
-6 21 -12 31 -12 10 0 17 -5 15 -12 -1 -7 5 -13 13 -14 37 -3 41 -5 35 -14 -3
-5 0 -8 7 -5 7 3 31 -4 53 -15 21 -11 45 -20 53 -20 7 0 10 -4 7 -10 -4 -6 5
-10 20 -10 14 0 40 -8 58 -17 34 -18 38 -20 63 -22 8 0 13 -5 10 -10 -3 -5 6
-9 20 -9 15 0 29 -4 33 -8 9 -14 61 -35 71 -29 5 3 11 1 15 -5 4 -6 11 -8 16
-5 5 4 12 -1 15 -10 4 -9 13 -14 22 -10 8 3 25 -2 38 -10 13 -9 41 -17 62 -19
20 -3 41 -5 45 -5 5 -1 5 -6 2 -11 -4 -6 -3 -9 2 -8 18 5 93 -13 93 -22 0 -6
11 -10 24 -10 13 0 29 -7 36 -15 7 -9 15 -14 17 -11 2 2 34 -7 70 -20 36 -13
74 -24 83 -24 10 0 35 -8 56 -17 22 -10 46 -18 54 -19 8 0 23 -2 33 -3 10 0
15 -6 12 -12 -4 -6 -1 -9 6 -8 22 5 90 -11 113 -26 12 -7 41 -15 66 -18 71 -8
104 -17 112 -30 5 -9 8 -8 8 3 1 11 4 10 15 -4 8 -11 15 -14 15 -8 0 13 45 7
65 -8 6 -5 22 -7 38 -5 15 2 27 -2 27 -8 0 -5 3 -7 6 -4 4 3 16 1 28 -5 11 -7
37 -12 56 -13 19 -1 51 -6 70 -12 29 -10 103 -25 132 -27 3 -1 9 -4 13 -8 4
-4 14 -4 23 -1 9 4 13 2 9 -4 -4 -6 -1 -11 6 -10 43 1 77 -4 72 -12 -3 -6 4
-8 16 -6 12 2 31 -1 42 -6 11 -6 41 -13 66 -14 70 -5 143 -15 176 -25 17 -5
48 -10 70 -11 22 -2 44 -4 48 -7 4 -2 36 -5 70 -7 34 -2 76 -6 92 -10 39 -8
110 -14 270 -20 111 -4 180 -9 180 -15 0 0 52 -2 115 -3 63 -1 120 -5 127 -10
6 -4 23 -3 38 3 31 12 97 9 107 -5 5 -6 8 -5 8 2 0 10 47 13 198 13 108 -1
214 3 234 8 26 7 38 6 42 -2 3 -8 7 -8 13 1 6 8 59 13 171 15 89 2 162 7 162
11 0 5 4 6 9 2 5 -3 12 -2 15 3 3 5 30 8 61 8 30 -1 56 2 58 6 1 4 39 8 84 10
46 2 83 6 83 9 0 4 10 7 23 7 12 0 76 8 142 18 66 9 143 18 170 20 28 2 66 6
85 10 19 4 51 8 71 9 19 1 50 12 67 25 17 13 44 23 61 22 17 0 33 4 36 9 4 5
17 9 30 9 13 0 26 4 29 9 3 5 20 11 38 14 18 3 71 15 118 27 47 12 99 23 115
25 17 3 66 14 110 26 44 12 101 25 126 29 71 13 129 32 123 41 -5 9 16 13 48
11 11 -1 15 3 12 13 -5 11 1 15 20 15 14 0 26 5 26 11 0 7 10 9 25 7 14 -3 29
0 35 7 6 7 21 11 35 9 14 -1 25 1 25 6 0 11 56 33 85 33 15 0 25 5 25 13 0 10
12 14 38 14 22 0 52 7 69 15 16 8 40 17 54 19 13 2 25 5 27 7 3 2 12 5 57 14
22 4 48 14 58 23 9 8 17 12 17 7 0 -4 7 -2 15 5 8 6 19 9 25 5 5 -3 10 -1 10
4 0 6 8 11 18 11 11 0 33 7 50 16 18 8 45 16 61 16 17 1 32 7 35 14 3 7 22 20
43 29 21 9 53 23 71 31 18 8 39 14 47 14 8 0 15 5 15 10 0 6 13 10 29 10 17 0
33 5 36 10 3 6 16 10 29 10 13 0 31 9 41 20 10 11 26 20 36 20 10 0 24 7 33
15 8 8 24 15 35 15 12 0 21 4 21 9 0 5 25 19 55 31 30 12 55 26 55 30 0 5 14
11 30 15 17 4 30 11 30 17 0 6 13 8 30 6 21 -3 29 -1 28 8 -2 7 0 13 4 14 4 0
20 12 34 25 15 14 33 25 40 25 8 0 14 4 14 9 0 5 13 12 29 16 16 3 32 13 35
21 3 9 10 12 16 9 5 -3 10 -1 10 4 0 6 7 11 16 11 8 0 13 4 10 9 -4 5 7 12 24
16 16 4 30 11 30 17 0 15 31 37 53 38 11 0 15 4 11 12 -5 7 0 9 14 6 14 -4 19
-2 16 7 -5 11 29 29 49 26 5 -1 6 3 2 9 -3 5 7 16 22 22 15 7 34 18 41 25 7 7
20 13 28 13 8 0 13 4 9 10 -3 5 7 16 22 24 15 8 39 28 53 45 14 17 31 31 38
31 7 0 15 7 18 15 4 8 15 15 25 15 10 0 18 6 16 12 -1 7 8 14 21 16 12 2 22 9
22 15 0 11 16 23 82 63 10 6 15 14 11 17 -3 4 0 7 9 7 8 0 41 29 73 65 32 36
64 65 71 65 8 0 14 6 14 13 0 7 14 23 30 37 17 14 30 30 30 37 0 7 6 13 13 13
7 0 18 9 25 20 7 12 17 18 23 15 5 -4 8 -3 7 2 -5 16 51 75 64 67 7 -4 10 -4
6 1 -9 9 10 47 20 41 4 -2 13 2 20 10 7 8 10 14 6 14 -4 0 7 13 24 29 16 16
27 32 24 36 -3 3 4 8 16 12 12 3 20 9 17 13 -3 5 6 22 20 38 14 16 25 33 25
36 0 4 5 12 10 19 6 7 24 28 40 47 16 19 30 39 30 43 0 5 4 6 9 3 5 -3 8 2 7
12 0 9 4 16 11 15 7 -2 20 13 29 33 16 34 36 62 77 105 9 10 17 21 17 24 0 3
17 27 38 54 49 62 103 173 109 225 6 48 27 68 61 59 18 -4 23 -2 18 6 -4 6 0
14 8 17 9 3 16 12 16 19 0 6 18 40 40 74 22 34 40 66 40 71 0 4 6 10 12 12 7
3 13 13 13 24 0 10 6 18 13 16 6 -1 13 2 13 8 1 5 2 13 3 18 0 4 11 18 24 32
12 13 22 34 22 47 0 13 5 23 10 23 6 0 9 3 9 8 -1 4 0 10 1 15 4 12 7 26 9 38
0 5 6 7 13 3 6 -4 8 -3 5 4 -10 15 3 43 16 35 5 -3 7 -1 4 4 -4 6 2 22 13 36
11 14 20 30 20 35 0 5 7 13 16 16 9 4 14 13 10 21 -3 9 1 18 9 21 8 4 12 10 9
15 -6 10 40 92 47 84 3 -2 6 5 6 17 1 11 9 28 17 37 9 10 16 25 16 35 0 10 5
14 11 11 6 -4 10 -1 8 6 -3 28 1 39 17 39 8 0 13 4 10 9 -3 5 1 22 9 37 8 16
15 35 15 42 0 6 7 12 15 12 14 0 20 24 16 57 -1 7 5 13 14 13 8 0 15 8 15 19
0 10 7 24 15 31 8 7 13 16 10 20 -3 4 4 19 16 33 11 15 20 29 19 32 0 3 1 7 1
10 1 3 2 11 3 18 1 6 7 11 14 10 6 -2 9 4 6 12 -4 8 -1 15 6 15 6 0 10 5 8 12
-3 7 3 20 11 30 9 10 16 22 17 26 3 26 18 62 26 62 5 0 6 5 3 10 -3 6 -2 10 4
10 6 0 13 12 17 28 8 34 46 116 57 120 4 2 7 14 7 27 0 13 7 31 16 40 9 8 17
27 18 40 0 14 5 25 10 25 4 0 6 6 3 14 -3 7 1 23 9 35 8 11 13 21 9 21 -3 0 1
13 10 29 8 17 17 38 19 48 13 62 19 83 27 83 4 0 7 13 7 30 -1 16 5 36 12 45
7 8 9 15 5 15 -5 0 -1 8 9 19 9 10 14 25 10 35 -4 10 1 24 10 35 9 10 13 21 9
25 -4 4 -2 10 4 14 7 4 14 19 17 32 3 14 8 38 11 54 7 34 23 66 33 66 4 0 7
16 8 36 0 20 5 39 10 42 10 7 14 21 22 65 2 15 9 27 15 27 6 0 7 3 4 7 -4 3 0
17 9 31 8 13 13 26 10 29 -3 3 2 22 10 42 9 20 17 41 18 48 1 7 5 16 9 19 4 4
7 16 7 26 0 10 5 18 11 18 5 0 8 4 5 8 -3 5 1 30 9 55 8 26 14 50 14 52 0 20
26 85 33 85 5 0 7 4 4 8 -3 4 0 26 5 48 5 21 12 55 15 74 2 19 8 37 12 40 4 3
9 16 10 30 2 14 9 31 15 39 7 8 13 28 13 45 1 17 5 40 8 51 3 11 11 38 17 60
6 22 14 61 16 88 3 26 9 47 15 47 6 0 8 6 5 14 -3 8 -3 17 1 21 4 4 8 11 8 16
1 5 2 12 4 17 1 4 2 28 2 55 -1 29 3 45 9 41 6 -3 9 8 7 28 -3 41 12 138 21
138 3 0 7 17 7 38 1 59 14 195 21 217 6 21 11 81 14 203 1 40 6 75 11 78 4 3
5 11 1 17 -13 21 -12 37 3 37 8 0 14 5 14 10 0 6 -4 10 -9 10 -5 0 -7 19 -5
42 3 24 5 71 5 106 0 43 4 60 11 56 8 -5 8 -3 2 7 -10 16 -12 109 -3 109 4 0
4 15 2 33 -3 17 -7 86 -9 152 -2 66 -5 174 -7 241 -2 67 -8 127 -12 134 -6 9
-4 11 5 5 9 -6 11 -4 5 5 -4 7 -9 27 -11 44 -5 67 -16 193 -20 236 -2 25 -5
57 -6 73 0 15 -4 27 -8 27 -4 0 -7 12 -8 28 0 15 -1 29 -2 32 -2 5 -9 82 -11
128 -1 12 -5 22 -9 22 -4 0 -8 10 -8 23 0 31 -12 147 -19 177 -3 14 -7 40 -8
59 -2 18 -10 50 -18 70 -14 31 -29 103 -42 201 -2 14 -13 56 -25 93 -12 38
-19 75 -16 83 3 8 1 14 -5 14 -6 0 -9 8 -8 18 2 9 -2 26 -8 37 -6 11 -11 23
-12 28 -1 4 -1 8 -2 10 -4 12 -9 38 -15 67 -3 19 -9 40 -14 45 -4 6 -11 30
-15 55 -4 25 -13 59 -21 75 -21 45 -34 96 -23 90 5 -4 9 0 9 8 0 8 -7 18 -16
21 -9 4 -14 9 -11 13 3 3 0 20 -8 38 -7 19 -12 35 -9 37 2 2 -12 49 -31 104
-20 54 -35 99 -34 99 0 0 -2 17 -6 38 -4 20 -10 37 -14 37 -4 0 -8 12 -9 28
-1 15 -6 28 -11 30 -5 2 -6 12 -3 24 3 13 1 19 -5 15 -8 -5 -29 56 -37 105 -1
7 -5 19 -9 26 -5 6 -5 12 -1 12 3 0 1 7 -6 15 -6 8 -9 19 -5 25 3 5 1 10 -5
10 -7 0 -10 7 -6 15 3 8 1 15 -5 15 -6 0 -8 4 -4 9 3 5 1 12 -4 15 -5 3 -12
23 -16 43 -4 21 -10 43 -14 48 -4 6 -16 37 -26 70 -10 33 -22 67 -26 75 -22
44 -89 192 -89 198 0 4 -9 26 -20 47 -11 22 -18 45 -15 52 2 7 -3 13 -11 13
-10 0 -14 6 -10 15 3 8 2 15 -3 15 -8 0 -22 32 -25 55 -1 6 -7 15 -15 21 -9 7
-11 16 -6 25 5 8 4 11 0 6 -11 -10 -48 70 -41 88 3 8 0 12 -8 9 -15 -6 -48 60
-40 81 4 10 0 15 -10 15 -13 0 -23 23 -13 33 1 1 -10 16 -25 32 -25 26 -30 39
-27 61 0 4 -4 10 -9 13 -9 6 -54 81 -90 151 -10 19 -29 53 -42 75 -14 22 -23
40 -21 40 3 0 -7 13 -22 29 -15 16 -24 32 -22 36 3 5 1 10 -3 12 -15 6 -72
115 -72 136 0 12 -9 26 -20 32 -12 7 -17 16 -13 27 4 11 3 14 -5 9 -11 -6 -17
12 -13 37 0 4 -3 7 -8 7 -10 0 -57 91 -53 103 1 5 -2 6 -8 2 -5 -3 -10 -2 -10
3 0 5 -13 26 -30 47 -16 20 -27 41 -24 46 3 5 1 9 -4 9 -6 0 -15 12 -21 28
-12 28 -42 84 -51 92 -3 3 -11 18 -18 33 -6 15 -19 30 -27 33 -8 4 -15 11 -15
17 0 9 -107 175 -121 187 -3 3 -9 12 -12 20 -4 8 -23 35 -42 60 -20 25 -38 53
-41 62 -4 10 -14 20 -24 23 -10 3 -21 17 -24 31 -4 14 -11 22 -16 19 -9 -6
-14 8 -11 28 0 4 -3 7 -8 7 -5 0 -35 33 -65 73 -31 39 -60 77 -66 84 -5 7 -10
17 -10 22 0 5 -5 13 -12 17 -7 5 -8 3 -3 -6 5 -9 4 -11 -4 -6 -7 5 -16 19 -22
33 -5 14 -14 21 -21 17 -6 -4 -8 -3 -5 3 4 6 -4 18 -18 27 -14 9 -25 25 -25
36 0 10 -5 22 -12 26 -7 5 -9 2 -4 -7 4 -8 -2 -1 -15 14 -12 16 -45 53 -74 83
-29 30 -56 61 -59 70 -3 8 -10 12 -16 9 -6 -3 -14 4 -19 17 -4 13 -11 22 -15
21 -17 -7 -36 -1 -36 11 0 7 -10 20 -22 29 -13 8 -47 37 -75 64 -29 27 -55 48
-57 45 -3 -2 -12 8 -21 22 -10 14 -24 26 -32 26 -8 0 -11 5 -8 10 3 6 -1 10
-10 10 -9 0 -13 5 -10 10 3 6 -1 10 -9 10 -8 0 -28 12 -43 26 -15 14 -46 40
-67 58 -22 17 -47 39 -58 49 -10 9 -22 17 -27 17 -4 0 -18 14 -31 30 -13 17
-28 30 -34 30 -6 0 -22 10 -36 23 -14 12 -40 29 -57 36 -18 7 -30 17 -27 22 3
5 -4 9 -15 9 -21 0 -68 39 -64 51 1 4 -7 5 -18 2 -14 -4 -22 0 -25 14 -3 10
-14 20 -26 20 -11 1 -26 10 -34 20 -7 10 -14 14 -14 10 0 -10 -60 25 -60 35 0
4 -7 8 -15 8 -17 0 -56 20 -66 33 -3 5 -10 9 -15 8 -5 0 -64 28 -132 61 -68
33 -126 58 -129 54 -3 -3 -16 5 -28 19 -13 13 -26 21 -29 18 -3 -4 -6 0 -6 7
0 7 -3 11 -6 7 -8 -7 -64 13 -64 23 0 4 -9 6 -20 3 -11 -3 -20 -1 -20 4 0 5
-18 16 -40 23 -21 7 -37 16 -35 20 6 9 -33 23 -59 20 -12 -1 -16 2 -11 11 6 9
1 10 -16 6 -13 -3 -31 -2 -39 3 -8 5 -10 10 -5 11 6 0 -10 7 -35 14 -80 24
-124 43 -128 54 -2 6 -10 11 -19 11 -8 0 -21 6 -28 13 -26 22 -41 32 -55 35
-8 2 -18 8 -21 14 -3 5 -9 9 -13 9 -28 -4 -49 2 -64 17 -9 9 -29 19 -42 20
-14 2 -26 8 -28 13 -2 5 -15 9 -28 9 -14 0 -27 7 -30 15 -4 8 -10 13 -14 10
-5 -3 -11 -1 -15 5 -4 6 -11 8 -16 5 -8 -5 -55 11 -102 36 -10 5 -22 7 -27 4
-6 -4 -10 1 -10 10 0 11 -5 15 -14 12 -15 -6 -76 19 -87 35 -3 5 -12 9 -20 8
-35 -5 -59 1 -59 15 0 8 -3 14 -7 13 -16 -4 -93 14 -99 23 -3 5 -17 9 -31 9
-21 0 -77 24 -93 40 -6 6 -30 12 -47 13 -7 0 -13 4 -13 9 0 5 -4 7 -8 4 -5 -3
-20 1 -33 8 -14 7 -31 13 -39 14 -8 0 -59 16 -112 35 -54 19 -100 32 -103 29
-3 -3 -5 0 -5 6 0 7 -3 11 -7 10 -9 -2 -65 23 -73 32 -3 3 -34 11 -70 19 -36
7 -69 17 -75 22 -5 5 -18 9 -30 9 -11 1 -38 8 -60 16 -22 9 -50 15 -63 15 -13
0 -21 2 -19 7 3 4 -9 7 -26 6 -18 0 -37 4 -44 8 -6 5 -67 11 -135 14 -67 3
-139 11 -158 17 -19 7 -48 13 -65 14 -16 1 -73 4 -125 7 -89 5 -138 10 -150
15 -6 2 -127 13 -150 14 -8 0 -48 -2 -88 -6 -80 -6 -137 5 -150 30 -7 11 -28
17 -78 20 -38 2 -70 8 -72 13 -4 12 -22 13 -22 2z m-2690 -2204 c0 -3 9 -4 20
-1 28 7 130 -7 130 -18 0 -5 -10 -9 -22 -9 -27 0 -15 -13 15 -15 21 -2 37 10
37 28 0 5 -5 5 -12 1 -6 -4 -8 -3 -5 3 3 5 22 7 42 5 32 -4 34 -6 18 -17 -13
-10 -20 -10 -26 -2 -6 8 -7 7 -4 -3 2 -8 10 -15 18 -15 8 0 20 -4 27 -8 8 -6
12 0 13 20 1 28 1 28 8 3 3 -14 12 -26 20 -28 11 -2 12 0 3 11 -16 19 -5 28
22 18 11 -5 27 -6 35 -3 10 3 12 -1 9 -16 -4 -14 -2 -19 6 -16 7 3 31 1 54 -5
23 -5 42 -5 42 -1 0 5 9 6 20 3 11 -3 17 -10 13 -17 -3 -6 0 -5 8 2 12 11 12
14 -1 22 -8 5 -18 6 -22 4 -4 -3 -8 0 -8 5 0 12 51 14 87 5 13 -4 21 -10 18
-14 -3 -5 14 -6 37 -4 39 3 41 2 24 -11 -10 -8 -24 -11 -30 -8 -6 4 -21 7 -34
8 -12 0 -27 7 -32 15 -5 8 -12 11 -16 7 -13 -12 14 -31 63 -43 42 -11 50 -10
72 7 13 11 27 17 30 13 3 -3 -3 -12 -13 -20 -19 -14 -19 -14 2 -14 12 0 22 5
22 10 0 14 27 12 33 -2 4 -10 8 -10 15 1 7 9 12 10 16 2 4 -6 12 -9 17 -6 5 3
6 -1 3 -10 -4 -9 -3 -15 2 -14 5 1 11 1 14 -1 22 -8 59 -7 54 2 -3 5 -15 8
-25 5 -12 -3 -19 0 -19 10 0 12 6 13 28 8 15 -4 33 -8 40 -8 6 0 12 -7 12 -14
0 -8 -4 -11 -10 -8 -5 3 -10 1 -10 -4 0 -16 16 -13 34 4 8 8 18 15 21 15 4 0
5 -7 1 -15 -3 -9 0 -15 10 -15 9 0 12 -5 8 -12 -4 -7 -4 -10 1 -6 4 4 16 3 26
-2 11 -6 20 -6 23 -1 6 10 66 -8 77 -22 5 -7 39 -14 77 -16 6 -1 12 -6 12 -12
0 -6 -9 -8 -22 -4 -17 5 -19 4 -8 -4 8 -5 26 -7 41 -4 20 4 30 -1 41 -16 9
-12 19 -21 24 -20 10 2 28 -4 89 -31 22 -10 62 -26 89 -36 40 -15 45 -19 30
-26 -16 -6 -15 -7 6 -6 37 3 70 -11 64 -27 -3 -7 0 -16 7 -21 8 -4 10 -3 5 4
-10 16 2 32 19 26 8 -3 11 -12 7 -22 -5 -14 -3 -15 10 -4 20 16 72 -4 64 -25
-3 -7 -1 -13 3 -13 5 0 11 5 13 11 3 8 9 6 20 -4 8 -9 18 -13 22 -10 3 4 6 -3
6 -14 0 -16 5 -20 19 -16 12 3 26 -3 37 -16 10 -12 24 -21 32 -21 7 0 10 -5 6
-12 -5 -7 -2 -9 8 -5 10 3 15 0 14 -11 0 -9 4 -16 10 -15 7 1 10 -6 7 -17 -4
-16 -2 -19 12 -14 10 4 15 14 12 25 -3 11 0 19 5 19 6 0 8 -12 4 -30 -3 -17
-2 -29 3 -26 5 3 11 -1 15 -9 3 -8 0 -15 -6 -15 -6 0 -9 -3 -5 -6 3 -4 13 -4
22 0 13 4 14 10 5 26 -9 16 -8 20 4 20 9 0 13 -6 10 -14 -3 -8 -1 -17 5 -20 6
-4 8 -13 4 -21 -3 -10 1 -15 12 -15 10 0 13 -5 9 -12 -4 -7 -3 -8 5 -4 8 5 5
16 -9 37 -12 16 -17 29 -11 29 6 0 11 -4 11 -10 0 -5 7 -10 15 -10 8 0 15 -7
15 -15 0 -9 6 -12 15 -9 11 5 13 2 9 -10 -3 -9 -13 -16 -21 -16 -8 0 -11 -4
-8 -10 10 -17 33 -11 40 10 6 18 8 18 33 -12 15 -18 26 -36 24 -40 -1 -4 2 -8
7 -8 6 0 9 -9 8 -20 -1 -20 -12 -17 -12 3 0 7 -9 10 -20 9 -16 -3 -17 -1 -6
12 22 27 3 37 -51 27 -16 -2 -8 -22 11 -29 11 -4 20 -11 21 -17 1 -5 9 -8 18
-7 13 3 14 1 3 -12 -12 -14 -9 -18 20 -30 25 -11 36 -11 41 -3 6 9 8 8 8 -1 0
-14 24 -42 35 -42 4 0 5 7 1 15 -3 9 0 15 9 15 8 0 15 -7 15 -16 0 -8 5 -12
11 -9 6 4 13 -2 16 -14 3 -12 12 -21 19 -21 8 0 14 -4 14 -9 0 -5 -8 -8 -17
-6 -10 2 -21 4 -25 4 -4 1 -5 7 -2 15 6 15 -22 30 -37 20 -6 -3 -16 -1 -24 6
-10 8 -15 8 -21 -1 -4 -8 -3 -9 4 -5 16 10 15 -7 0 -23 -11 -11 -10 -12 2 -5
27 16 53 15 47 -1 -7 -18 2 -24 41 -27 17 -1 28 -6 25 -12 -3 -5 5 -7 20 -4
15 3 24 1 21 -3 -3 -5 0 -9 5 -9 6 0 11 -7 11 -15 0 -8 -5 -15 -11 -15 -5 0
-7 5 -4 10 10 16 -25 24 -38 10 -10 -10 -8 -12 5 -7 12 4 15 2 11 -9 -3 -9 2
-14 17 -14 20 0 22 -3 15 -37 l-7 -38 21 24 c17 20 19 27 8 40 -11 14 -10 14
5 3 10 -8 17 -17 16 -20 -2 -20 4 -31 20 -34 14 -3 13 -5 -6 -10 -12 -3 -20
-2 -17 2 3 5 1 11 -4 15 -6 3 -15 -4 -21 -15 -7 -13 -7 -20 0 -20 5 0 10 -7
10 -15 0 -8 7 -15 16 -15 10 0 14 -6 11 -14 -4 -10 -1 -13 8 -9 8 3 12 9 9 14
-3 5 2 9 10 9 9 0 16 8 16 18 0 14 2 15 10 2 6 -9 5 -17 -2 -21 -7 -4 -13 -19
-15 -33 -3 -19 0 -24 11 -20 8 3 14 11 12 17 -1 7 -1 9 1 5 2 -4 11 -4 19 -1
8 3 14 -1 14 -8 0 -7 -3 -9 -7 -6 -7 8 -33 -11 -33 -24 0 -5 9 -9 20 -9 11 0
20 -5 20 -11 0 -5 4 -8 9 -5 10 7 23 -19 14 -28 -4 -3 -15 -6 -25 -6 -20 0
-25 -26 -7 -32 7 -2 17 -19 23 -38 6 -21 19 -36 30 -38 17 -4 18 0 13 32 -7
45 9 39 18 -7 4 -17 18 -49 31 -69 26 -41 30 -53 14 -43 -7 4 -9 -7 -7 -31 4
-37 15 -50 38 -42 8 3 6 10 -5 21 -10 9 -13 17 -7 17 16 0 30 -33 27 -63 -2
-14 1 -24 6 -21 9 6 58 -96 58 -121 0 -12 -3 -12 -20 2 -12 10 -15 20 -9 23 6
4 4 12 -6 20 -9 8 -13 20 -9 32 4 14 0 21 -16 25 -12 3 -20 12 -18 22 1 9 -2
16 -7 16 -11 0 -7 -37 4 -45 8 -5 23 -58 19 -63 -4 -5 22 -29 52 -50 l24 -17
-22 0 c-13 0 -21 -4 -18 -9 3 -5 15 -7 26 -4 23 6 28 -15 5 -23 -8 -4 -15 -10
-15 -16 0 -5 4 -7 8 -4 12 7 30 -55 25 -90 -6 -56 -9 -66 -21 -73 -15 -9 5
-63 37 -100 28 -32 26 -39 -6 -35 -16 2 -20 1 -10 -2 9 -3 15 -10 12 -15 -12
-18 -14 -49 -3 -49 5 0 8 6 5 14 -6 15 19 31 27 17 9 -14 -6 -52 -19 -47 -14
5 -30 -23 -19 -33 4 -3 9 0 11 7 3 6 11 12 18 12 14 0 14 -9 1 -48 -4 -12 -12
-19 -18 -16 -6 4 -6 -2 1 -15 7 -11 8 -21 2 -21 -5 0 -11 -14 -13 -30 -4 -24
-1 -30 11 -28 9 2 17 9 17 16 1 6 2 17 3 22 2 18 21 10 21 -8 0 -21 -33 -56
-43 -45 -4 3 -7 -2 -8 -13 0 -18 -1 -18 -9 1 -6 14 -9 15 -9 5 -1 -27 19 -40
45 -30 18 7 24 6 24 -4 0 -9 -8 -12 -22 -9 -19 4 -20 3 -8 -6 12 -9 9 -10 -15
-5 -23 4 -26 3 -15 -5 12 -9 13 -11 1 -11 -25 0 -2 -13 26 -15 25 -1 27 -4 26
-38 -2 -70 -3 -77 -14 -77 -6 0 -13 9 -16 20 -6 23 -20 27 -20 5 0 -8 5 -15
10 -15 6 0 2 -10 -9 -21 -19 -21 -19 -21 1 -17 11 2 19 9 18 16 -2 6 3 9 11 6
8 -3 12 -13 10 -22 -1 -9 -6 -35 -9 -56 -5 -27 -9 -35 -15 -26 -11 18 -37 21
-37 4 0 -7 4 -11 9 -8 4 3 8 -6 8 -20 0 -14 -6 -26 -12 -26 -7 -1 -4 -6 7 -13
11 -7 21 -22 22 -35 3 -28 -15 -20 -26 11 -7 20 -8 19 -13 -6 -3 -15 -3 -26 0
-23 2 3 12 -2 21 -11 12 -12 13 -17 3 -21 -7 -2 -10 -8 -7 -13 4 -5 1 -17 -4
-26 -6 -10 -11 -13 -11 -7 0 7 -11 14 -25 16 -21 4 -23 2 -15 -13 12 -21 13
-32 2 -25 -4 2 -8 -8 -7 -22 0 -18 -5 -26 -14 -24 -12 3 -12 1 0 -14 13 -16
12 -17 -5 -10 -19 6 -19 6 -3 -12 20 -22 23 -57 5 -46 -9 5 -9 2 1 -9 20 -25
40 -21 35 6 -4 20 -4 20 4 2 5 -11 7 -27 4 -37 -4 -15 -6 -16 -19 -2 -9 8 -17
13 -19 11 -7 -7 7 -37 17 -37 5 0 9 -7 9 -16 0 -8 -4 -12 -10 -9 -5 3 -15 -3
-22 -14 -12 -21 -13 -20 -24 1 -10 19 -11 19 -10 -10 0 -16 4 -28 9 -25 4 2 7
-2 7 -9 1 -7 8 -1 16 15 21 40 24 33 8 -20 -8 -26 -17 -59 -19 -73 -3 -14 -9
-26 -15 -28 -5 -2 -10 -10 -10 -18 0 -8 -5 -14 -11 -14 -5 0 -8 4 -4 9 3 5 0
13 -6 17 -7 4 -9 3 -5 -4 3 -6 -1 -15 -10 -20 -12 -7 -15 -15 -9 -28 7 -18 7
-18 15 1 7 17 9 17 14 4 4 -8 0 -31 -8 -50 -14 -31 -15 -32 -16 -9 0 24 -1 23
-17 -8 -10 -21 -21 -31 -30 -28 -8 3 -12 2 -9 -3 3 -4 -1 -17 -9 -27 -18 -24
-18 -31 -1 -31 8 0 15 3 14 6 -2 21 4 31 14 25 7 -4 8 -3 4 4 -4 7 -2 12 3 12
6 0 11 8 11 17 0 13 3 14 12 5 9 -9 4 -27 -21 -79 -41 -82 -38 -78 -53 -65 -9
7 -17 6 -26 -4 -7 -8 -10 -14 -7 -14 3 0 0 -10 -7 -22 -7 -13 -11 -29 -10 -35
2 -7 -3 -13 -9 -13 -7 0 -9 -3 -6 -7 4 -3 2 -12 -5 -20 -8 -11 -7 -12 6 -7 19
7 19 4 6 -31 -6 -15 -15 -23 -21 -20 -6 4 -10 1 -8 -6 3 -28 -1 -39 -16 -39
-9 0 -15 -6 -14 -12 4 -25 -13 -68 -27 -68 -8 0 -14 -8 -14 -17 0 -10 -4 -14
-8 -8 -10 14 -32 17 -32 5 0 -6 5 -10 10 -10 6 0 10 -5 10 -11 0 -7 -10 -9
-25 -7 -13 3 -24 2 -23 -1 2 -20 -3 -31 -12 -26 -6 4 -7 -1 -3 -11 5 -15 7
-15 15 0 5 9 14 16 21 16 8 0 9 -2 1 -8 -6 -4 -19 -24 -29 -45 -11 -23 -21
-34 -25 -27 -4 6 -10 -5 -13 -26 -6 -38 -50 -94 -74 -94 -7 0 -13 -9 -13 -20
0 -11 -4 -20 -9 -20 -15 0 -23 18 -11 23 6 3 5 4 -2 3 -7 -2 -12 -10 -12 -18
1 -8 -8 -21 -19 -27 -17 -11 -19 -11 -14 3 4 9 4 16 1 16 -2 0 -9 -11 -14 -25
-8 -21 -14 -24 -35 -19 -14 3 -25 2 -25 -4 0 -16 43 -22 59 -9 11 9 11 5 -2
-20 -9 -17 -23 -35 -29 -39 -9 -5 -8 -2 1 9 8 10 11 21 7 24 -4 4 -11 2 -15
-6 -5 -7 -12 -12 -17 -11 -5 1 -10 -4 -13 -11 -2 -7 1 -9 8 -5 6 4 11 2 11 -3
0 -18 -5 -26 -12 -24 -5 2 -8 -4 -8 -13 0 -20 -45 -64 -66 -64 -8 0 -14 -6
-13 -12 4 -33 -2 -40 -26 -36 -25 5 -35 -7 -12 -15 7 -2 -2 -18 -25 -43 -21
-21 -38 -42 -38 -47 0 -5 -15 -7 -32 -4 -18 3 -27 3 -20 0 19 -7 14 -29 -12
-57 -27 -30 -38 -33 -29 -10 4 12 2 15 -8 12 -8 -3 -14 -16 -14 -30 -1 -37
-31 -62 -72 -60 -21 2 -32 -1 -28 -7 3 -6 12 -8 20 -4 8 3 15 0 15 -6 0 -6 -9
-11 -20 -11 -12 0 -17 -5 -14 -13 2 -7 -9 -24 -26 -37 -17 -14 -62 -56 -101
-93 -38 -37 -73 -66 -78 -62 -5 3 -12 1 -16 -5 -3 -5 -1 -10 5 -10 12 0 -60
-64 -91 -80 -10 -6 -25 -7 -33 -4 -12 4 -16 0 -16 -15 0 -17 -7 -21 -32 -23
-42 -2 -49 -1 -73 3 -13 3 -20 -2 -22 -16 -2 -16 -1 -17 5 -4 5 12 13 14 27 8
18 -7 17 -9 -12 -20 -18 -8 -33 -17 -33 -21 0 -4 -9 -8 -20 -8 -11 0 -20 -4
-20 -10 0 -5 -11 -12 -25 -16 -14 -3 -22 -11 -18 -17 4 -6 -1 -8 -14 -5 -15 4
-20 1 -19 -11 1 -10 -8 -17 -26 -19 -16 -2 -28 -8 -28 -13 0 -6 -4 -8 -8 -5
-5 3 -20 -5 -33 -17 -13 -12 -28 -23 -34 -23 -5 -1 -19 -5 -30 -8 -11 -4 -24
-6 -29 -6 -5 1 -12 -3 -15 -9 -4 -6 -21 -12 -39 -14 -18 -2 -35 -7 -40 -12 -4
-5 -1 -5 6 -1 6 4 12 5 12 2 0 -3 -14 -13 -30 -21 -27 -14 -29 -18 -19 -37 10
-19 9 -20 -12 -15 l-24 6 25 -21 c14 -12 18 -19 8 -15 -12 4 -16 1 -15 -14 1
-19 17 -28 17 -8 0 5 4 8 9 5 12 -8 20 -56 10 -56 -5 0 -9 7 -9 15 0 8 -5 15
-11 15 -6 0 -8 -7 -5 -16 3 -9 6 -20 6 -25 0 -5 3 -8 8 -8 4 1 14 1 22 0 13
-1 13 -2 0 -11 -13 -8 -12 -10 3 -10 14 0 17 -5 12 -20 -3 -11 -2 -20 3 -20 5
0 9 -6 9 -12 1 -17 10 -64 18 -87 3 -11 1 -22 -5 -26 -14 -9 -13 -25 3 -25 7
0 23 -33 37 -72 13 -40 31 -89 39 -108 8 -19 14 -38 13 -42 -1 -5 3 -8 8 -8 6
0 10 -7 10 -15 0 -9 9 -34 21 -57 11 -22 19 -49 16 -59 -3 -10 -2 -18 2 -17
21 2 41 -3 41 -13 0 -5 -4 -7 -10 -4 -5 3 -10 1 -10 -4 0 -6 7 -11 15 -11 8 0
15 -5 15 -11 0 -6 -7 -8 -16 -5 -8 3 -12 2 -9 -4 3 -6 14 -10 23 -11 10 0 12
-3 5 -6 -9 -3 -7 -10 7 -25 10 -11 23 -17 28 -14 5 3 12 -3 15 -14 3 -11 1
-23 -4 -26 -5 -3 -9 2 -9 10 0 9 -7 16 -15 16 -12 0 -12 -3 2 -20 10 -11 24
-20 31 -20 7 0 12 -8 10 -17 -2 -10 4 -27 14 -37 13 -14 15 -24 7 -37 -8 -15
-6 -17 7 -12 13 5 15 2 9 -16 -5 -16 1 -34 19 -61 14 -22 26 -46 26 -53 0 -7
6 -19 12 -25 10 -10 10 -15 -2 -23 -12 -8 -11 -9 5 -7 17 3 19 -2 17 -26 -3
-21 0 -26 10 -21 7 5 10 5 6 1 -6 -8 -1 -17 31 -52 18 -20 12 -24 -19 -12 -20
7 -22 11 -10 18 13 8 12 10 -2 10 -10 0 -18 5 -18 12 0 6 -3 8 -6 5 -9 -9 24
-57 39 -57 7 0 13 -10 14 -22 2 -28 28 -54 38 -39 3 6 1 10 -5 9 -7 -2 -16 7
-21 20 -6 16 -5 22 5 22 15 0 60 -69 51 -78 -3 -3 -5 0 -5 6 0 7 -4 12 -8 12
-12 0 -8 -38 6 -52 8 -8 12 -9 12 -1 0 6 -6 14 -12 16 -7 3 -3 6 9 6 15 1 20
-4 18 -16 -2 -10 -4 -22 -4 -26 -1 -5 -6 -5 -13 -1 -7 4 -8 3 -4 -4 7 -12 36
-5 36 9 0 5 5 9 11 9 6 0 8 -9 4 -20 -4 -14 -2 -20 7 -18 7 2 14 -7 16 -20 2
-13 8 -20 14 -16 7 5 8 2 3 -6 -6 -10 -12 -7 -26 11 -10 13 -19 19 -19 12 0
-13 39 -53 52 -53 4 0 8 5 8 10 0 6 5 10 11 10 5 0 7 -5 3 -11 -3 -6 0 -15 7
-20 10 -6 11 -9 2 -9 -19 0 -15 -38 5 -49 17 -9 24 -11 42 -11 6 0 10 -4 10
-10 0 -15 -47 -12 -53 3 -4 9 -6 9 -6 -1 -1 -18 41 -32 57 -20 8 7 17 7 27 -2
20 -17 19 -30 -3 -25 -22 4 -23 -24 -3 -49 7 -8 9 -21 5 -27 -4 -7 -3 -9 3 -6
10 6 59 -25 76 -48 5 -7 10 -6 15 2 5 8 13 9 22 3 13 -9 13 -10 0 -10 -12 -1
-11 -3 3 -11 9 -5 28 -21 42 -35 23 -23 23 -24 4 -24 -13 0 -18 4 -13 12 4 7
3 8 -4 4 -9 -5 -8 -12 1 -27 6 -10 13 -15 15 -9 2 5 8 10 13 10 14 0 48 -33
43 -42 -3 -4 2 -8 10 -8 9 0 16 -5 16 -11 0 -5 -4 -8 -9 -5 -5 3 -12 -1 -15
-10 -5 -12 -2 -15 10 -10 12 5 15 2 10 -9 -3 -9 -2 -14 3 -10 5 3 15 -1 23 -8
7 -8 19 -12 26 -9 15 5 73 -58 65 -70 -2 -5 0 -8 6 -8 5 0 22 -11 37 -25 15
-14 22 -25 15 -25 -6 0 -11 -7 -11 -15 0 -8 -5 -15 -12 -15 -6 0 -8 -3 -5 -7
4 -3 15 1 25 11 21 18 52 12 52 -11 0 -8 -4 -11 -10 -8 -5 3 -10 1 -10 -5 0
-6 10 -8 24 -4 16 4 34 0 48 -10 17 -12 19 -16 6 -16 -9 0 -18 5 -20 11 -5 14
-35 1 -35 -15 0 -7 6 -13 13 -13 7 0 11 4 8 9 -7 11 47 -1 64 -15 6 -5 12 -20
12 -33 0 -16 6 -24 18 -24 9 0 24 -5 32 -10 13 -8 12 -11 -4 -23 -20 -15 -15
-37 9 -37 7 0 15 -5 17 -11 2 -7 9 -5 17 5 12 14 11 16 -8 16 -12 0 -21 6 -21
15 0 23 15 18 48 -15 31 -31 49 -40 36 -17 -10 15 19 -7 66 -53 20 -19 45 -41
56 -48 18 -12 17 -12 -7 -9 -14 2 -26 -1 -26 -8 0 -6 12 -11 26 -10 19 0 25
-4 23 -17 -2 -10 2 -18 9 -18 7 0 9 10 5 28 -6 24 -5 25 7 10 8 -10 17 -15 20
-12 3 4 9 -6 13 -21 4 -18 9 -23 14 -15 4 7 13 9 19 6 6 -4 9 -12 6 -17 -3 -5
1 -6 10 -3 10 4 26 -5 44 -23 15 -16 32 -28 37 -26 12 4 40 -14 33 -22 -3 -3
-20 -2 -37 1 -21 4 -29 11 -25 20 3 10 0 12 -10 8 -21 -8 -10 -34 14 -34 10 0
23 -8 28 -17 6 -10 11 -15 11 -11 0 4 16 0 35 -8 19 -8 35 -11 34 -7 -3 21 3
22 32 7 25 -12 29 -18 18 -25 -10 -6 -6 -9 14 -9 40 0 41 0 60 -17 9 -9 16
-23 16 -32 -1 -13 -2 -13 -6 2 -6 23 -19 22 -26 -3 -4 -17 -1 -19 19 -16 13 3
26 0 29 -5 4 -5 15 -9 25 -9 10 0 26 -7 34 -16 15 -14 16 -14 16 0 0 9 6 16
13 16 8 0 11 15 10 45 -1 25 2 45 6 45 4 0 5 23 4 51 -3 34 -1 49 7 44 6 -3 8
-11 5 -16 -3 -5 1 -6 10 -3 14 6 14 9 -4 28 -23 25 -12 56 20 56 11 0 18 4 14
10 -3 5 -12 7 -20 4 -11 -4 -13 7 -11 53 1 52 4 58 23 57 14 -1 20 3 16 12 -2
7 -11 10 -18 8 -9 -4 -13 5 -13 30 0 23 5 36 13 36 19 0 28 17 14 26 -8 4 -9
3 -5 -4 4 -7 2 -12 -3 -12 -6 0 -11 9 -11 21 0 11 3 18 8 16 4 -3 8 9 9 26 2
49 10 131 12 137 2 3 3 25 4 50 2 40 5 45 23 42 12 -2 24 3 26 10 8 20 -10 60
-23 53 -8 -5 -8 -10 0 -18 6 -6 11 -18 10 -26 0 -11 -2 -12 -6 -3 -2 6 -9 10
-14 6 -12 -7 -11 12 2 59 9 33 12 37 26 25 14 -11 15 -10 9 9 -4 12 -2 24 4
28 13 8 13 25 -1 25 -5 0 -7 -4 -4 -10 3 -6 1 -10 -4 -10 -6 0 -11 18 -11 40
0 22 5 40 10 40 6 0 10 -5 10 -12 0 -9 3 -9 12 0 10 10 10 14 1 20 -10 6 -10
23 -2 72 5 36 14 66 19 68 5 2 7 9 5 15 -8 22 32 132 49 135 9 2 16 10 16 18
0 7 11 16 24 20 14 3 27 12 30 20 3 8 12 14 21 14 18 0 66 29 77 46 4 6 26 11
49 12 24 1 46 8 50 14 5 7 16 13 26 14 55 3 63 5 63 19 0 21 27 19 39 -2 10
-17 10 -17 11 0 0 9 5 17 11 17 8 0 8 5 -1 15 -7 8 -9 15 -5 15 4 0 14 -8 21
-18 9 -11 13 -13 14 -4 0 7 5 10 10 7 6 -3 10 -2 10 4 0 5 -8 11 -17 13 -15 3
-14 5 5 10 18 5 22 2 22 -18 0 -26 7 -29 30 -13 13 9 12 10 -2 5 -10 -3 -18
-1 -18 4 0 6 9 10 21 10 11 0 17 5 14 10 -4 6 -3 10 2 9 20 -3 34 2 28 11 -4
6 8 10 27 11 18 0 43 2 56 5 16 3 22 -1 23 -14 1 -9 5 -3 9 13 l8 30 1 -27 c1
-31 17 -44 35 -29 7 6 15 8 19 5 3 -3 14 -1 24 6 15 10 16 11 1 6 -10 -3 -20
0 -24 7 -4 7 -4 9 1 5 14 -13 46 12 40 31 -3 11 0 21 9 24 19 8 28 -3 15 -19
-8 -10 -6 -13 9 -11 12 0 18 6 15 14 -7 17 60 45 96 41 14 -1 32 1 39 5 6 5
12 4 12 -2 0 -11 -15 -15 -34 -12 -5 1 -13 -4 -17 -11 -7 -10 -9 -10 -9 1 0
10 -3 11 -14 2 -8 -6 -18 -11 -22 -10 -18 3 -34 -1 -34 -10 0 -4 17 -11 38
-15 28 -4 40 -2 50 11 6 9 12 12 12 6 0 -13 43 -25 63 -17 15 5 17 27 4 40
-12 12 -8 24 8 24 10 0 15 -7 13 -17 -2 -14 5 -19 37 -21 26 -2 35 0 26 6 -7
5 -21 8 -30 5 -11 -3 -18 1 -18 11 0 21 15 20 60 -4 20 -11 46 -20 56 -20 11
0 23 -4 26 -10 3 -5 12 -10 20 -10 15 0 101 -55 111 -71 9 -16 5 -203 -5 -207
-5 -2 -6 -12 -3 -24 3 -14 1 -19 -6 -14 -7 4 -12 2 -12 -3 0 -6 6 -11 13 -12
6 0 3 -4 -8 -9 -11 -5 -15 -9 -9 -9 13 -1 7 -92 -6 -101 -4 -3 -6 -29 -5 -57
2 -44 0 -53 -14 -54 -10 0 -11 -2 -3 -6 19 -8 15 -33 -5 -27 -14 5 -15 4 -4
-4 11 -8 11 -21 -3 -83 -10 -41 -22 -107 -28 -146 -6 -40 -15 -73 -19 -73 -4
0 -5 -10 -1 -22 5 -21 4 -22 -14 -8 -18 14 -18 14 -3 -5 21 -27 19 -60 -3 -59
-10 1 -18 -2 -18 -7 0 -5 6 -9 13 -9 18 0 16 -88 -3 -100 -13 -9 -13 -11 0
-20 13 -9 7 -14 -12 -11 -5 0 -8 -3 -8 -9 0 -5 5 -10 10 -10 6 0 10 -17 10
-38 0 -31 -4 -38 -20 -39 -18 -2 -19 0 -5 13 17 17 19 24 7 24 -15 0 -33 -41
-24 -57 6 -11 11 -12 16 -4 4 6 12 11 18 11 7 0 5 -7 -4 -17 -22 -26 -33 -47
-21 -40 17 11 25 -37 8 -49 -17 -12 -21 -39 -5 -29 6 3 10 -1 10 -9 0 -9 -7
-16 -15 -16 -8 0 -15 -5 -15 -11 0 -5 4 -8 8 -5 5 3 6 -8 4 -25 -2 -16 -7 -29
-11 -29 -3 0 -6 -17 -6 -37 -1 -21 -4 -65 -9 -98 -4 -33 -4 -55 1 -48 5 7 29
10 65 7 31 -2 60 1 63 6 4 6 -1 7 -11 3 -11 -4 -15 -2 -11 4 4 6 21 13 38 15
29 5 30 4 14 -9 -11 -7 -14 -13 -8 -13 7 0 18 7 27 15 19 20 26 19 27 -2 0
-15 2 -15 7 -3 9 20 59 25 79 8 12 -9 15 -10 9 0 -5 8 0 12 16 13 13 1 32 3
43 5 11 2 50 10 87 17 36 6 70 16 75 21 5 5 2 6 -6 1 -10 -6 -12 -4 -6 4 5 9
10 10 18 2 14 -14 37 -14 37 -1 0 5 -8 7 -17 3 -17 -5 -17 -5 -2 12 14 14 21
15 39 5 20 -11 21 -10 11 8 -9 18 -4 23 47 48 31 16 60 33 63 38 4 5 18 9 33
9 14 0 26 4 26 9 0 5 4 7 9 4 5 -3 11 1 15 9 3 8 12 15 21 15 8 0 15 6 15 13
0 8 12 12 35 12 19 -1 32 2 29 6 -7 12 19 16 49 8 15 -4 27 -4 27 2 0 5 -10 9
-22 9 -21 1 -21 2 -5 11 10 6 25 8 32 5 8 -3 14 -1 12 3 -4 14 81 90 87 78 2
-7 5 -4 5 5 1 24 81 97 106 98 15 0 17 2 6 9 -11 7 -9 10 8 16 11 3 21 11 21
16 0 5 15 10 33 10 17 1 24 3 15 6 -22 6 -22 12 -1 35 18 20 38 25 27 6 -4 -6
-3 -8 4 -5 5 4 8 16 5 26 -4 17 25 44 49 46 3 0 10 4 15 9 5 5 3 6 -4 2 -8 -4
-13 -2 -13 7 0 7 17 21 37 31 26 12 33 20 24 25 -9 6 -10 11 -2 15 6 4 15 4
21 1 6 -4 7 1 3 11 -4 12 -3 15 5 10 8 -5 12 0 12 13 0 12 3 20 8 20 22 -4 34
3 28 16 -3 8 -1 15 5 15 6 0 7 5 4 10 -3 6 -1 10 5 10 6 0 16 13 21 30 6 16
16 28 22 27 7 -1 11 4 9 12 -3 12 -1 12 14 0 16 -13 16 -12 4 10 -11 21 -10
23 3 18 11 -4 14 -2 10 9 -3 8 2 25 11 39 9 13 16 32 16 41 0 11 6 15 20 11
11 -3 20 -1 20 4 0 5 -4 9 -10 9 -9 0 27 87 41 100 6 6 43 83 44 92 0 3 3 10
8 14 4 4 7 15 7 25 0 9 5 19 11 21 7 2 13 16 13 30 2 29 11 43 28 43 6 0 13 6
16 14 3 10 0 12 -13 7 -14 -5 -16 -3 -10 11 4 10 7 26 7 36 -1 11 7 17 21 18
17 1 18 2 5 6 -22 5 -23 27 -3 82 16 45 15 42 15 71 0 11 4 20 10 20 5 0 7 -8
4 -17 -5 -15 -4 -16 5 -3 8 11 7 18 -5 27 -8 6 -11 14 -6 17 5 3 9 20 10 38 0
19 8 38 19 46 15 10 15 14 4 21 -13 9 -12 40 3 101 6 24 6 24 -3 3 -6 -13 -12
-23 -15 -23 -8 0 6 74 15 85 5 5 9 14 9 20 0 5 -5 3 -10 -5 -8 -12 -10 -9 -10
13 0 15 6 27 13 27 9 0 9 2 0 8 -16 10 -44 162 -29 162 8 0 7 3 -1 8 -6 4 -14
19 -16 32 -2 14 -8 34 -12 45 -4 11 -14 35 -21 53 -9 21 -9 32 -2 32 5 0 0 9
-13 21 -13 11 -19 18 -12 15 6 -4 14 -2 17 3 3 5 -1 11 -9 15 -20 7 -56 67
-48 79 4 6 1 7 -6 3 -8 -5 -14 0 -18 13 -3 12 -9 21 -14 21 -5 0 -9 6 -9 14 0
7 -10 21 -22 30 -60 41 -64 46 -48 57 13 9 12 10 -3 5 -15 -5 -111 47 -154 84
-7 5 -16 10 -20 10 -12 -1 -157 74 -164 84 -4 5 -14 6 -23 3 -10 -4 -25 2 -38
15 -16 16 -20 17 -15 5 7 -20 -9 -22 -48 -7 -20 7 -25 15 -21 27 6 16 6 16
-12 0 -19 -17 -37 -23 -29 -9 3 4 -26 8 -64 8 -52 1 -75 6 -92 20 -18 16 -19
16 -8 2 12 -16 11 -18 -13 -18 -19 0 -25 4 -20 13 5 8 2 7 -9 -2 -10 -8 -21
-11 -24 -7 -4 4 -1 11 7 16 11 7 11 10 2 10 -7 0 -15 -7 -18 -15 -4 -9 -15
-13 -27 -11 -12 3 -26 5 -32 6 -5 1 -1 5 10 10 19 8 19 9 -2 9 -14 1 -23 -5
-23 -14 0 -12 -20 -15 -117 -14 -79 0 -135 -5 -168 -15 -64 -20 -125 -21 -125
-2 0 14 -46 26 -68 18 -15 -5 -16 -32 -2 -32 6 0 10 4 10 8 0 5 10 8 23 7 40
-3 23 -20 -28 -27 -27 -3 -62 -9 -77 -13 -21 -6 -27 -3 -30 11 -3 17 -5 17
-26 -4 -25 -25 -82 -41 -82 -23 0 6 -5 11 -11 11 -5 0 -7 -4 -4 -10 3 -5 -7
-12 -22 -16 -15 -4 -32 -10 -38 -14 -5 -4 -23 -12 -40 -18 -16 -5 -38 -13 -47
-17 -14 -5 -18 -2 -18 14 0 12 -5 21 -11 21 -5 0 -7 -5 -3 -11 5 -8 -1 -10
-20 -7 -17 4 -25 1 -23 -6 2 -6 14 -10 27 -8 14 2 20 0 16 -7 -10 -15 -46 -14
-52 2 -2 7 -16 14 -30 15 -22 2 -25 0 -14 -13 10 -12 10 -15 0 -15 -7 0 -19
-8 -27 -17 -13 -17 -14 -16 -8 4 5 18 2 20 -15 16 -11 -3 -20 -12 -20 -20 0
-8 5 -11 13 -7 6 4 5 -1 -4 -11 -10 -10 -32 -17 -55 -17 -21 0 -47 -6 -58 -14
-11 -8 -39 -14 -63 -14 -23 0 -45 -4 -48 -10 -7 -12 -55 -14 -55 -2 0 4 6 14
13 22 10 12 9 12 -6 1 -9 -8 -16 -21 -15 -30 2 -9 -3 -15 -11 -13 -8 2 -30
-13 -50 -32 -27 -26 -43 -34 -64 -32 -15 2 -30 0 -32 -4 -3 -5 6 -7 20 -5 20
2 23 0 14 -11 -6 -8 -20 -14 -30 -14 -11 0 -19 -5 -19 -11 0 -5 -8 -9 -17 -8
-33 3 -48 -3 -25 -10 20 -5 17 -8 -22 -17 -31 -7 -43 -7 -39 0 4 6 -2 4 -13
-5 -10 -9 -24 -14 -31 -12 -6 2 -15 -1 -19 -8 -5 -8 -3 -10 7 -4 8 5 10 4 6 0
-11 -12 -37 -15 -37 -4 0 5 -8 9 -17 8 -11 0 -13 -3 -5 -6 17 -7 15 -40 -4
-47 -16 -6 -84 18 -84 30 0 3 6 4 13 1 8 -3 13 3 14 17 0 11 -1 15 -4 9 -7
-19 -23 -16 -24 5 -1 11 -3 8 -8 -8 l-7 -24 -20 20 c-11 11 -28 23 -37 27 -8
3 -21 16 -27 29 l-11 23 20 -23 c11 -12 22 -18 25 -13 3 5 -7 17 -22 27 -15 9
-37 27 -48 40 -21 22 -86 147 -90 171 -1 7 -9 20 -18 29 -9 8 -14 20 -11 25 4
5 1 9 -4 9 -6 0 -11 5 -11 11 0 6 -7 17 -15 25 -17 17 -20 44 -5 44 19 0 10
21 -27 60 -26 26 -44 60 -57 102 -11 35 -23 67 -28 73 -11 13 -10 35 3 35 5 0
8 -4 5 -8 -2 -4 -1 -14 4 -22 7 -11 11 -10 25 3 9 10 11 17 5 17 -6 0 -8 5 -5
10 3 6 -1 13 -9 16 -9 3 -16 12 -16 20 0 8 -6 11 -15 8 -18 -7 -18 -4 -5 30
11 29 4 56 -14 56 -14 0 -36 41 -36 65 0 14 12 20 33 16 5 -1 4 6 -1 16 -8 13
-6 20 6 30 15 10 14 11 -6 6 -29 -7 -38 -23 -21 -34 11 -7 10 -9 -3 -9 -10 0
-18 7 -18 16 0 16 29 52 31 37 0 -4 4 1 8 12 5 12 4 26 -3 34 -9 11 -12 9 -17
-10 -5 -18 -7 -13 -9 21 -1 25 -3 54 -6 65 -2 11 -1 37 2 58 4 28 11 38 30 43
13 3 24 11 24 16 0 6 -7 7 -15 4 -13 -5 -12 -1 2 19 14 18 27 24 56 25 20 0
37 5 37 10 0 6 6 10 13 10 7 0 24 11 37 23 22 21 26 22 37 8 11 -14 12 -13 9
8 -3 30 -23 39 -32 17 -4 -9 -15 -21 -26 -27 -17 -9 -18 -8 -7 9 22 36 97 68
85 37 -3 -8 -1 -15 4 -15 6 0 10 7 10 15 0 8 5 15 11 15 5 0 8 4 5 8 -3 5 10
15 29 24 23 10 35 12 38 4 2 -6 24 -11 49 -11 43 -1 45 0 42 27 -2 15 1 28 7
28 6 0 7 -4 4 -10 -3 -5 -3 -10 2 -10 4 0 18 -3 29 -6 19 -5 21 -2 16 22 -4
22 -2 26 11 21 10 -4 17 0 20 11 3 12 5 11 6 -5 1 -28 13 -35 29 -17 10 11 10
14 -1 14 -7 0 -14 7 -14 15 0 20 14 19 35 -1 12 -12 17 -13 20 -4 3 7 -1 16
-8 20 -9 5 -9 9 -1 14 18 11 30 -2 23 -27 -5 -21 -5 -21 12 -4 10 10 16 24 13
31 -4 9 3 16 16 20 31 8 49 7 43 -2 -3 -5 2 -9 10 -9 8 0 17 11 20 24 7 28 20
30 20 4 0 -11 -5 -17 -10 -14 -5 3 -6 1 -2 -5 5 -9 13 -9 27 -2 20 11 26 30 9
30 -19 0 -10 28 12 33 27 7 45 -2 27 -14 -11 -7 -10 -9 3 -9 9 0 18 9 20 21 2
12 14 26 27 31 21 7 22 6 11 -7 -10 -12 -10 -15 4 -15 10 0 14 -4 11 -10 -3
-6 1 -7 9 -4 9 3 16 13 16 21 0 8 -4 11 -10 8 -6 -3 -7 1 -4 9 8 20 18 20 37
2 12 -13 18 -11 46 15 18 16 40 29 49 29 15 0 15 2 2 10 -12 8 -10 10 10 10
14 -1 40 2 58 6 21 4 32 2 32 -5 0 -6 5 -11 11 -11 6 0 9 7 5 15 -4 12 3 15
32 14 20 -1 50 4 66 10 26 10 27 10 16 -4 -9 -11 -9 -15 -1 -15 6 0 14 7 17
15 4 9 28 17 67 22 34 4 64 6 67 6 3 -1 13 -5 23 -8 12 -5 17 -2 17 10 0 11
-5 15 -16 11 -8 -3 -12 -2 -9 4 3 6 19 10 35 10 24 0 27 -3 24 -22 -4 -22 -4
-22 5 -2 11 24 43 36 62 22 12 -7 11 -9 -1 -7 -27 3 -40 -1 -40 -11 0 -5 7 -7
15 -4 8 4 15 1 15 -5 0 -6 5 -11 11 -11 5 0 8 4 5 9 -7 11 22 23 35 15 5 -3 9
-1 9 5 0 5 -6 12 -12 15 -7 3 6 5 30 3 23 -1 42 1 42 5 0 4 10 6 23 4 33 -7
33 -7 12 -16 -19 -8 -19 -9 3 -9 13 -1 22 5 22 14 0 8 7 15 16 15 14 0 14 -3
4 -15 -11 -13 -10 -14 4 -9 9 3 16 10 16 15 0 5 7 9 16 9 10 0 14 -5 10 -16
-3 -8 -2 -12 4 -9 6 3 10 15 10 26 0 18 6 20 53 19 28 -2 59 0 67 3 8 3 34 8
58 10 32 4 42 2 42 -10 0 -9 -6 -12 -19 -8 -12 3 -21 0 -24 -9 -4 -10 -1 -13
10 -9 8 3 19 0 24 -8 7 -11 9 -9 9 6 0 12 3 16 8 9 8 -13 44 -15 36 -2 -3 5
-9 6 -14 3 -4 -3 -6 4 -3 14 5 20 33 38 33 22 0 -5 -6 -12 -12 -14 -8 -3 -6
-6 5 -6 10 -1 20 5 23 12 5 14 84 23 84 9 0 -4 -4 -13 -10 -20 -7 -9 -7 -9 2
-2 15 12 31 13 24 2 -3 -5 1 -9 9 -9 20 0 19 7 -2 24 -17 13 -17 14 2 11 13
-2 24 -16 32 -38 7 -19 12 -27 12 -17 1 10 5 16 10 12 13 -8 43 24 34 38 -4 7
0 8 11 4 10 -4 22 -7 27 -7 6 0 7 -6 4 -12 -4 -7 0 -5 9 6 17 21 36 14 31 -12
-2 -13 4 -17 26 -16 16 0 32 4 36 7 3 4 13 7 21 7 12 0 12 -2 1 -17 -12 -14
-12 -16 1 -11 8 3 25 1 38 -3 20 -8 22 -6 16 17 -6 23 -4 25 20 21 15 -1 26
-7 26 -13 -1 -5 -8 -8 -17 -6 -13 3 -13 1 -2 -11 8 -8 16 -11 17 -6 2 6 11 4
19 -3 12 -10 14 -9 11 7 -1 10 3 20 11 23 8 3 11 0 7 -6 -3 -6 -2 -13 4 -17 6
-4 8 -10 6 -14 -3 -4 -1 -13 5 -21 7 -12 9 -11 9 4 0 18 1 18 19 2 11 -10 21
-13 25 -7 4 5 2 12 -4 16 -20 12 -10 22 25 23 19 1 41 -5 50 -14 8 -9 15 -11
15 -5 0 6 7 8 16 4 16 -6 39 -9 80 -12 14 -1 24 -10 28 -26 4 -15 11 -23 17
-19 8 4 7 9 -2 15 -11 7 -9 9 6 10 11 1 23 1 27 0 4 0 25 -3 48 -6 77 -9 90
-15 90 -41 0 -15 6 -24 15 -24 13 0 14 4 4 21 -11 21 -10 21 37 14 62 -9 92
-24 46 -23 -18 1 -35 5 -38 10 -3 4 -13 8 -22 7 -11 0 -12 -2 -4 -6 6 -2 9
-10 6 -15 -4 -7 -2 -8 4 -4 7 4 12 2 12 -4 0 -6 4 -8 10 -5 6 3 10 1 10 -4 0
-6 7 -11 16 -11 12 0 14 3 6 13 -15 17 53 14 75 -4 14 -12 16 -12 8 0 -5 10
-4 12 3 7 7 -4 12 -13 12 -21 0 -15 22 -25 58 -25 31 -1 60 -20 55 -36 -2 -7
13 -14 36 -18 22 -3 41 -9 43 -13 1 -5 19 -16 39 -26 20 -11 50 -31 66 -45 16
-15 34 -27 41 -27 7 0 12 -4 13 -10 0 -5 6 -16 12 -23 8 -10 7 -16 -2 -21 -10
-6 -9 -10 4 -14 9 -4 13 -3 10 3 -3 6 -2 10 3 10 5 0 12 -10 15 -21 5 -18 11
-20 32 -15 15 4 24 3 21 -2 -3 -5 6 -14 20 -21 41 -18 94 -62 88 -72 -3 -5 6
-9 20 -9 17 0 26 -6 26 -16 0 -8 5 -12 10 -9 6 3 10 1 10 -6 0 -6 8 -18 18
-26 16 -14 16 -14 -1 -9 -14 5 -16 2 -7 -13 6 -13 17 -17 30 -14 12 3 20 0 20
-7 0 -7 -7 -10 -15 -7 -8 4 -17 2 -20 -2 -8 -13 21 -32 38 -25 9 3 24 1 34 -5
17 -10 17 -10 -3 -11 -29 0 -36 -10 -18 -27 8 -8 12 -19 9 -24 -4 -5 1 -6 9
-3 17 6 17 24 1 37 -5 4 1 6 14 4 14 -2 28 -12 32 -23 4 -10 8 -13 8 -5 1 7
14 -1 31 -19 35 -38 35 -36 14 -44 -12 -4 -15 -2 -11 9 7 17 -9 30 -18 15 -4
-6 -11 -7 -18 -3 -7 4 -4 9 9 14 16 6 16 8 2 8 -26 1 -30 -14 -8 -34 11 -10
17 -21 15 -26 -3 -4 0 -11 7 -15 15 -10 47 -13 46 -5 0 3 0 14 1 25 1 15 4 16
16 6 9 -7 13 -21 10 -31 -4 -12 -1 -21 10 -25 9 -4 14 -13 11 -21 -3 -8 -1
-11 4 -8 6 3 10 1 10 -4 0 -6 -5 -11 -11 -11 -5 0 -7 -5 -4 -10 4 -6 10 -8 15
-5 10 6 8 -15 -3 -31 -4 -7 0 -14 8 -18 8 -3 17 -1 20 5 4 5 13 3 21 -6 9 -8
19 -13 24 -10 5 3 12 0 16 -6 5 -8 3 -9 -6 -4 -8 5 -11 3 -8 -6 3 -8 11 -14
19 -14 8 0 14 -9 14 -20 0 -11 15 -35 34 -54 18 -20 28 -37 22 -39 -16 -5 -13
-22 4 -22 8 0 15 -7 15 -16 0 -13 -6 -10 -25 10 -14 15 -23 31 -20 36 3 5 -8
24 -25 41 -16 18 -30 36 -30 41 0 5 -9 18 -20 30 -16 18 -20 19 -20 6 0 -26
11 -48 21 -42 17 10 9 -29 -8 -43 -13 -11 -11 -11 9 1 30 17 42 5 26 -26 -6
-14 -5 -16 7 -12 20 8 19 0 -1 -21 -15 -15 -14 -15 9 -10 22 6 25 4 20 -14 -3
-11 -10 -18 -16 -14 -6 3 -7 1 -3 -6 4 -6 13 -8 19 -4 25 15 37 11 37 -14 0
-28 35 -62 64 -63 16 0 17 -3 8 -12 -9 -9 -15 -9 -24 0 -7 7 -19 12 -27 12
-11 0 -9 -5 7 -16 12 -8 20 -19 17 -23 -2 -5 2 -17 10 -27 14 -17 16 -18 28
-3 9 12 15 13 23 5 15 -16 24 -56 13 -56 -11 0 -11 -31 0 -48 6 -10 10 -9 14
7 3 12 1 19 -4 15 -5 -3 -9 0 -9 5 0 6 6 11 13 11 13 0 30 -35 42 -85 4 -16
12 -33 18 -37 8 -5 6 -8 -5 -8 -12 0 -18 8 -18 21 0 11 -4 18 -9 14 -5 -3 -12
-1 -16 5 -3 5 -1 10 4 10 6 0 11 4 11 8 0 5 -7 9 -15 9 -8 0 -15 -4 -15 -8 0
-5 -8 -6 -17 -3 -11 2 -9 0 4 -7 13 -7 25 -28 32 -55 6 -24 16 -44 21 -44 14
0 12 17 -2 24 -7 2 -2 3 12 1 14 -2 29 -4 33 -4 10 -1 -10 -23 -38 -40 -12 -8
-14 -11 -4 -8 9 3 22 0 28 -6 8 -8 11 -5 11 11 0 12 4 22 10 22 5 0 7 -7 4
-15 -4 -8 -2 -15 4 -15 5 0 8 -10 8 -22 -1 -13 2 -30 8 -38 8 -12 8 -13 -4 -2
-18 16 -38 16 -22 0 7 -7 12 -20 12 -29 0 -20 18 -35 28 -24 3 3 0 10 -8 15
-13 8 -12 10 3 10 10 0 17 -7 17 -18 0 -10 5 -23 12 -30 9 -9 9 -12 0 -12 -7
0 -12 4 -12 10 0 5 -7 7 -15 4 -24 -9 -17 -24 10 -24 14 0 25 -4 25 -10 0 -5
-8 -7 -17 -3 -14 4 -13 1 5 -16 12 -12 20 -26 17 -32 -4 -5 -1 -9 4 -9 6 0 11
-4 11 -10 0 -5 -7 -6 -17 -3 -11 4 -14 3 -9 -5 4 -7 14 -12 22 -12 8 0 14 -5
14 -11 0 -5 -5 -7 -10 -4 -6 4 -5 -5 2 -20 10 -22 9 -28 -3 -37 -11 -8 -11 -9
3 -5 14 5 18 -6 24 -71 10 -102 10 -107 -4 -104 -15 3 -16 -14 -2 -23 6 -4 8
-11 5 -16 -4 -5 -2 -9 4 -9 6 0 10 -25 10 -57 -1 -85 -8 -113 -27 -112 -11 0
-12 2 -4 6 6 2 10 9 6 14 -3 5 0 9 6 9 6 0 8 4 5 10 -8 13 -31 -8 -32 -31 -1
-9 7 -19 18 -22 10 -3 19 -11 19 -17 0 -10 -3 -10 -15 0 -12 10 -15 10 -15 -4
0 -9 8 -16 18 -17 10 0 12 -3 5 -6 -7 -2 -13 -9 -13 -14 0 -6 4 -8 9 -5 4 3 7
-5 6 -17 -1 -12 -3 -22 -5 -22 -1 0 -3 -13 -4 -30 -1 -16 -5 -46 -9 -65 -4
-19 -9 -60 -11 -90 -3 -30 -12 -71 -20 -91 -8 -20 -12 -46 -9 -57 3 -14 1 -22
-7 -22 -7 0 -10 6 -7 14 3 8 -1 17 -9 20 -10 4 -14 0 -12 -12 2 -9 -3 -16 -9
-14 -7 1 -13 -5 -13 -14 0 -8 4 -13 9 -9 5 3 12 1 16 -5 4 -6 11 -8 16 -5 5 3
6 -1 3 -9 -3 -9 -12 -16 -19 -16 -7 0 -15 -15 -17 -35 -3 -25 -1 -32 8 -24 7
5 10 19 7 29 -4 14 0 20 10 20 13 0 13 -6 -1 -50 -9 -28 -22 -50 -29 -50 -15
0 -18 -16 -4 -24 10 -7 2 -56 -10 -56 -13 0 -11 24 3 38 7 7 9 12 4 12 -14 0
-31 -25 -32 -47 0 -12 3 -20 8 -17 14 9 9 -7 -7 -23 -9 -8 -13 -18 -10 -22 4
-3 15 5 26 18 12 15 19 18 19 9 0 -24 -26 -52 -43 -45 -9 3 -18 -1 -21 -9 -4
-10 -2 -12 6 -8 7 5 8 3 3 -5 -4 -7 -16 -10 -27 -8 -19 5 -19 5 -2 -14 11 -12
26 -18 37 -15 15 4 16 2 6 -10 -6 -7 -15 -11 -20 -8 -5 3 -19 -2 -31 -10 l-22
-16 22 0 c13 0 20 4 17 10 -8 12 5 13 24 1 24 -15 5 -44 -24 -37 -18 5 -25 2
-25 -8 0 -8 -6 -16 -12 -19 -7 -2 -1 -4 14 -4 18 0 25 4 21 11 -4 8 -2 8 5 1
16 -15 4 -53 -19 -60 -21 -7 -25 -21 -8 -27 8 -3 7 -8 -2 -18 -8 -8 -14 -22
-14 -30 0 -9 -9 -15 -21 -14 -11 0 -21 -5 -21 -12 0 -7 6 -10 13 -7 10 4 11
-2 1 -26 -6 -17 -17 -31 -24 -31 -19 0 -16 17 5 29 9 6 13 10 7 11 -25 0 -39
-21 -40 -65 -2 -29 1 -42 6 -34 5 8 9 22 9 32 0 9 5 17 10 17 6 0 5 -13 -3
-32 -8 -20 -21 -32 -30 -32 -12 1 -14 -2 -8 -14 13 -23 -19 -84 -41 -78 -11 2
-15 -1 -11 -10 3 -8 10 -11 17 -8 6 3 2 -2 -9 -10 -11 -9 -25 -14 -32 -12 -7
3 -10 -1 -6 -10 6 -16 23 -19 23 -4 0 6 5 10 11 10 6 0 -1 -14 -15 -31 -14
-17 -26 -39 -26 -50 0 -17 -11 -24 -32 -20 -8 1 -12 -14 -9 -38 2 -8 -2 -10
-10 -5 -7 4 -10 3 -5 -4 10 -16 -128 -182 -152 -182 -5 0 -12 -14 -16 -30 -3
-19 -27 -51 -59 -83 -30 -28 -59 -62 -66 -75 -7 -14 -18 -21 -27 -18 -8 3 -14
-1 -14 -10 0 -21 -157 -177 -170 -169 -6 4 -7 -1 -3 -11 4 -12 3 -15 -5 -10
-8 5 -12 0 -12 -13 0 -12 -4 -21 -10 -21 -5 0 -28 -18 -50 -40 -22 -22 -47
-40 -55 -40 -8 0 -12 -6 -10 -12 5 -14 -152 -112 -198 -123 -15 -4 -30 -11
-33 -17 -3 -5 -16 -13 -27 -19 -12 -5 -29 -13 -37 -18 -8 -4 -31 -16 -50 -27
-19 -10 -41 -24 -48 -31 -7 -7 -20 -13 -28 -13 -8 0 -12 -5 -9 -10 3 -5 -1
-10 -9 -10 -8 0 -19 -6 -23 -13 -7 -11 -93 -57 -107 -57 -12 0 -202 -114 -209
-126 -4 -8 -20 -14 -35 -14 -26 1 -26 1 -8 15 10 8 23 12 27 9 5 -3 9 0 9 6 0
8 -7 9 -17 5 -10 -4 -23 -8 -30 -8 -6 0 -10 -9 -8 -19 4 -21 -10 -29 -58 -32
-18 -2 -31 -7 -29 -14 1 -7 -8 -12 -20 -12 -22 0 -21 1 7 25 17 13 25 24 18
25 -6 0 -15 -5 -18 -11 -4 -6 -12 -8 -19 -6 -7 3 -13 -5 -14 -16 0 -12 -6 -23
-12 -25 -5 -2 -10 -11 -10 -20 0 -12 -3 -13 -12 -4 -15 15 -38 16 -38 1 0 -5
5 -7 10 -4 6 3 10 3 10 -2 -1 -16 -100 -54 -125 -47 -14 3 -31 1 -38 -4 -17
-14 -102 -28 -94 -16 3 6 -6 11 -21 12 -21 1 -24 0 -12 -8 8 -5 11 -10 5 -11
-5 0 1 -4 15 -8 24 -7 24 -8 -7 -12 -18 -3 -30 -2 -28 2 3 4 -1 9 -9 12 -9 4
-12 0 -9 -13 6 -23 -29 -44 -63 -37 -13 2 -24 1 -24 -3 0 -4 -21 -3 -47 1 -29
4 -52 3 -58 -3 -7 -6 -5 -9 5 -8 8 1 29 1 45 0 22 -2 15 -6 -30 -14 -33 -7
-69 -12 -80 -11 -11 0 -22 -3 -25 -7 -9 -12 -50 3 -43 16 3 6 -5 1 -19 -11
-13 -13 -31 -23 -40 -23 -9 0 -18 -6 -21 -12 -3 -10 -10 -8 -23 4 -13 13 -14
18 -4 18 7 0 10 3 7 7 -4 3 -16 -2 -28 -12 -12 -12 -23 -15 -27 -9 -4 5 -13 9
-19 8 -34 -4 -37 -6 -18 -14 19 -8 -19 -13 -102 -14 -13 0 -23 -4 -23 -9 0 -4
-3 -6 -8 -3 -4 2 -33 7 -64 10 -46 5 -57 4 -52 -7 3 -9 -4 -13 -26 -13 -31 0
-40 10 -17 20 6 2 1 4 -13 3 -14 -1 -31 -8 -38 -14 -7 -7 -20 -13 -27 -13 -9
0 -16 -17 -20 -47 -3 -27 -10 -70 -15 -98 -23 -115 -33 -174 -41 -235 -5 -36
-11 -76 -13 -90 -8 -54 -27 -189 -36 -260 -23 -172 -27 -190 -48 -190 -13 0
-14 -2 -3 -9 11 -7 12 -28 7 -97 -8 -117 -28 -254 -36 -249 -4 2 -4 -10 -2
-27 4 -24 -1 -35 -19 -50 l-24 -19 24 11 c22 11 23 10 16 -6 -4 -11 -12 -42
-16 -71 -11 -62 -26 -104 -42 -116 -8 -6 -6 -7 6 -3 12 4 17 0 17 -14 0 -11
-6 -20 -14 -20 -8 0 -16 -6 -19 -14 -4 -10 0 -12 15 -8 16 4 19 1 16 -14 -2
-10 -8 -18 -14 -17 -5 1 -9 -15 -10 -35 -3 -106 -45 -205 -78 -185 -5 4 -6 1
-2 -5 14 -23 -13 -49 -55 -56 -34 -5 -48 -2 -75 16 -19 13 -34 27 -34 31 0 5
-7 1 -16 -7 -20 -20 -45 -20 -92 -1 -25 11 -33 18 -24 24 7 4 -12 8 -43 9 -56
1 -171 44 -161 60 3 5 -9 6 -25 4 -20 -3 -40 2 -58 15 -14 11 -36 23 -48 27
-12 4 -27 13 -33 21 -7 8 -21 15 -31 15 -10 0 -30 5 -46 12 -32 13 -28 12 -72
22 -25 6 -30 11 -20 17 10 6 7 9 -12 9 -14 0 -36 9 -49 20 -13 11 -29 20 -37
20 -17 0 -45 25 -37 33 3 3 -2 4 -10 4 -29 -3 -113 66 -121 98 -4 17 -7 35 -5
40 8 39 8 49 -6 63 -9 8 -13 23 -11 34 3 10 1 16 -4 12 -5 -3 -9 6 -9 20 0 20
5 26 23 26 20 1 21 2 5 14 -23 17 -25 74 -5 113 9 18 12 33 7 35 -6 2 -4 14 5
31 7 15 10 27 5 27 -4 0 -6 9 -3 19 3 11 10 18 16 17 7 -2 9 -1 4 1 -4 3 -4
10 -1 15 4 7 2 8 -5 4 -9 -6 -10 0 -6 21 11 49 14 55 27 47 10 -6 10 -5 1 7
-10 12 -9 29 3 80 9 35 16 76 16 91 -1 16 4 28 11 28 8 0 8 3 1 10 -15 15 5
100 23 100 7 0 13 5 13 11 0 6 -7 9 -14 6 -10 -4 -13 -1 -9 9 3 9 7 37 8 62 3
81 4 84 19 79 16 -6 15 21 -1 31 -14 9 -9 98 7 117 9 11 9 15 1 15 -11 0 -10
25 4 105 2 11 4 46 4 78 1 44 4 56 14 51 9 -6 8 -3 -1 9 -8 9 -13 26 -12 39 4
50 1 58 -28 58 -15 0 -38 8 -51 17 -16 10 -21 12 -16 3 6 -10 4 -12 -11 -6
-10 4 -31 10 -46 13 -16 3 -28 10 -28 15 0 6 7 8 15 4 8 -3 15 -1 15 4 0 6
-23 10 -50 10 -36 0 -52 4 -56 15 -4 9 -19 15 -40 15 -19 0 -34 5 -34 10 0 6
-3 9 -7 9 -19 -3 -27 2 -14 10 9 6 10 11 2 15 -6 4 -11 2 -11 -3 0 -6 -7 -11
-15 -11 -8 0 -15 5 -15 11 0 5 -4 8 -9 4 -5 -3 -12 -1 -16 5 -3 5 -15 10 -26
10 -10 0 -19 4 -19 9 0 5 -22 16 -49 24 -53 15 -121 62 -121 82 0 7 -7 16 -16
19 -14 5 -15 4 -4 -9 8 -10 9 -15 1 -15 -16 0 -51 32 -51 48 0 7 -5 10 -10 7
-17 -11 -49 5 -43 21 3 7 0 14 -6 14 -6 0 -11 -6 -12 -12 0 -7 -4 -4 -9 7 -5
11 -9 14 -9 7 -1 -10 -6 -10 -21 -2 -11 6 -18 15 -15 21 4 5 -3 9 -14 9 -12 0
-21 7 -21 15 0 8 -7 15 -15 15 -8 0 -15 5 -15 11 0 5 -4 8 -9 4 -6 -3 -15 3
-21 14 -6 11 -16 18 -24 15 -7 -3 -20 2 -29 10 -8 8 -28 18 -43 22 -33 8 -82
33 -103 52 -11 11 -12 15 -2 22 9 5 10 10 3 14 -6 3 -13 2 -16 -3 -9 -14 -48
0 -42 15 3 8 2 13 -2 13 -20 -3 -32 3 -32 16 0 8 -8 15 -19 15 -10 0 -29 11
-43 24 -14 12 -33 26 -42 29 -9 4 -16 10 -16 16 0 5 -9 11 -21 14 -12 3 -18
10 -14 16 3 6 0 9 -8 5 -8 -3 -18 -1 -22 5 -3 6 2 12 12 12 10 1 5 4 -11 8
-16 3 -31 12 -34 20 -3 9 0 11 8 6 9 -5 11 -4 6 4 -4 6 -12 9 -17 5 -6 -3 -17
-3 -27 1 -14 5 -14 7 -2 15 12 8 11 10 -5 10 -29 0 -73 32 -67 49 3 10 0 12
-11 8 -9 -3 -27 3 -40 14 -14 10 -28 19 -32 19 -4 0 -18 11 -31 26 -13 14 -24
22 -24 19 0 -3 -5 -3 -10 0 -7 4 -6 14 2 28 10 20 10 21 -5 9 -20 -17 -43 -5
-85 43 -17 19 -34 35 -37 35 -9 0 -35 27 -35 35 0 4 -11 16 -25 27 -29 23 -32
35 -7 41 9 3 4 5 -12 4 -19 -1 -32 4 -40 18 -6 11 -19 26 -28 33 -25 19 -22
35 5 27 22 -7 22 -7 2 8 -15 11 -22 12 -27 4 -5 -8 -13 -4 -24 12 -10 13 -25
31 -36 40 -10 8 -18 26 -18 38 0 13 -4 23 -10 23 -5 0 -10 -5 -10 -11 0 -8 -5
-7 -15 1 -9 7 -13 15 -11 17 3 3 -5 15 -18 27 -32 31 -86 108 -86 123 0 7 -3
13 -8 13 -4 0 -16 17 -27 37 -11 21 -26 44 -33 53 -19 21 -114 169 -132 205
-8 17 -30 51 -48 78 -19 26 -30 47 -26 47 5 0 -2 7 -15 16 -15 11 -21 23 -18
36 3 11 0 21 -9 25 -8 3 -12 9 -9 13 3 4 -2 10 -10 14 -8 3 -15 10 -15 16 0 6
6 8 13 4 6 -3 -1 5 -18 20 -16 14 -25 26 -20 26 6 0 5 3 -1 8 -15 10 -54 92
-54 114 0 10 -5 18 -11 18 -6 0 -8 7 -5 16 3 8 2 12 -4 9 -10 -6 -62 94 -54
107 3 4 0 8 -6 8 -6 0 -15 10 -21 23 -5 12 -16 33 -24 47 -8 14 -10 26 -5 28
6 2 10 10 10 18 0 8 -6 11 -14 8 -18 -7 -38 55 -24 72 6 8 4 11 -4 10 -7 0
-13 4 -13 9 0 6 4 9 8 7 5 -1 6 2 2 8 -3 6 -10 8 -14 6 -11 -7 -41 59 -41 89
0 14 -4 25 -8 25 -13 0 -37 93 -24 98 6 2 8 10 5 18 -4 11 -8 12 -13 4 -5 -8
-12 0 -19 21 -9 25 -8 35 1 41 10 6 8 13 -9 27 -12 10 -19 21 -16 25 4 3 1 6
-6 6 -9 0 -9 5 -1 20 9 16 8 18 -5 14 -18 -7 -20 16 -2 35 10 11 9 13 -5 8
-13 -5 -18 -1 -18 13 0 11 -4 20 -8 20 -9 0 -35 96 -35 125 0 8 -4 12 -8 9 -4
-2 -10 0 -14 6 -3 5 0 10 7 10 9 0 10 2 2 8 -15 9 -46 102 -40 118 3 7 0 14
-7 17 -6 2 -12 14 -13 28 -1 13 -7 37 -13 54 -7 16 -10 37 -8 47 3 10 2 18 -2
18 -4 0 -8 6 -9 13 -1 14 -6 36 -22 96 -6 24 -9 50 -6 58 3 8 1 11 -4 8 -6 -3
-13 1 -16 10 -11 29 -33 -17 -43 -91 -6 -37 -10 -70 -9 -73 2 -18 -3 -32 -9
-28 -5 3 -9 -12 -10 -34 0 -21 -2 -65 -3 -96 -1 -32 -6 -63 -11 -69 -5 -7 -9
-25 -7 -41 1 -16 -2 -34 -6 -42 -5 -7 -8 -44 -8 -82 0 -39 -6 -96 -13 -127 -7
-31 -16 -82 -19 -112 -13 -126 -19 -166 -26 -180 -4 -8 -11 -43 -14 -78 -7
-72 -20 -102 -42 -102 -13 0 -13 -2 1 -17 16 -15 16 -17 0 -26 -11 -6 -14 -12
-7 -16 6 -4 9 -17 5 -30 -4 -17 -8 -19 -14 -9 -7 10 -9 9 -9 -4 0 -10 5 -18
10 -18 16 0 12 -32 -7 -53 -13 -14 -18 -37 -19 -86 -1 -36 -4 -78 -7 -93 -3
-16 -1 -28 4 -28 17 0 9 -20 -8 -20 -17 -1 -17 -1 0 -14 22 -17 22 -30 0 -22
-15 5 -14 3 2 -9 16 -13 18 -19 7 -35 -7 -12 -8 -20 -2 -20 5 0 10 -5 10 -11
0 -6 -7 -8 -16 -5 -8 3 -12 2 -9 -4 9 -15 -28 -49 -66 -61 -19 -6 -60 -12 -91
-15 -50 -4 -58 -2 -59 13 -1 15 -2 15 -6 2 -3 -14 -10 -14 -54 -5 -28 7 -54
18 -60 26 -8 13 -10 13 -19 0 -7 -12 -12 -12 -22 -2 -6 6 -22 12 -34 12 -39 0
-85 21 -82 38 2 10 -5 17 -17 19 -11 1 -14 0 -7 -3 6 -3 12 -10 12 -15 0 -10
-48 -2 -65 11 -5 4 -26 10 -46 14 -19 3 -53 15 -74 26 -22 11 -48 20 -58 20
-12 0 -17 5 -14 14 4 9 0 12 -13 9 -26 -7 -80 27 -81 52 0 18 -1 18 -8 2 -6
-17 -8 -17 -25 2 -11 12 -25 21 -33 21 -7 0 -13 7 -13 15 0 9 -9 15 -25 15
-15 0 -25 6 -25 14 0 8 -16 20 -35 26 -19 6 -34 14 -32 18 4 13 -38 52 -55 52
-10 0 -18 7 -18 15 0 8 -11 17 -25 21 -13 3 -27 15 -30 25 -4 10 -13 19 -21
19 -13 0 -21 43 -14 75 4 20 1 41 -13 90 -9 31 -11 51 -5 54 6 2 4 8 -3 13
-10 7 -5 8 15 3 26 -5 27 -4 13 10 -9 8 -21 15 -27 15 -17 0 -6 320 11 331 7
4 16 6 19 4 4 -2 7 3 7 11 0 10 -4 11 -11 4 -13 -13 -29 -13 -21 -1 3 6 8 36
11 68 3 32 10 81 16 108 6 28 12 72 13 98 2 26 8 53 14 60 6 7 11 41 12 75 1
34 6 62 11 62 5 0 7 3 5 8 -3 4 -1 59 4 122 5 63 12 160 14 215 6 119 17 221
31 295 1 8 3 21 3 28 1 6 9 13 19 13 15 1 15 2 -1 6 -17 4 -18 12 -12 71 8 79
15 112 24 112 4 0 5 16 3 35 -3 25 0 35 10 35 10 0 13 11 10 39 -3 32 4 70 34
181 6 23 31 143 54 260 15 80 26 110 43 124 17 15 18 18 4 13 -15 -6 -17 -3
-12 12 8 25 15 59 20 95 8 52 16 70 26 55 6 -9 9 -10 9 -2 0 6 -4 15 -10 18
-16 10 -12 43 8 54 15 9 15 10 0 11 -11 0 -15 6 -11 20 3 11 8 18 12 16 3 -2
6 30 6 72 0 82 14 262 21 274 3 4 12 4 22 1 13 -4 13 -2 -3 10 -17 14 -18 18
-5 27 11 7 11 10 2 10 -9 0 -10 5 -3 18 5 9 9 20 9 25 0 23 46 197 52 197 4 0
8 11 8 24 0 28 21 96 30 96 4 0 8 14 9 32 1 17 8 35 15 40 7 4 9 8 5 8 -5 0 1
15 12 34 12 18 21 38 21 43 0 17 74 89 110 107 19 10 53 24 75 31 22 7 49 16
59 20 15 7 17 5 11 -6 -4 -8 -5 -11 -1 -7 4 3 8 10 8 15 0 21 21 43 40 43 12
0 29 6 37 14 19 17 90 38 103 30 5 -3 7 0 6 8 -2 7 2 12 9 11 6 -1 17 4 23 12
7 8 25 15 40 15 16 0 30 5 32 12 3 8 9 8 22 1 21 -12 56 -6 56 9 0 5 -4 6 -10
3 -5 -3 -10 -1 -10 4 0 6 2 11 4 11 2 0 12 3 22 7 13 5 16 3 11 -10 -5 -14 -3
-15 13 -5 12 8 15 15 9 19 -15 9 -2 15 46 24 22 4 45 10 50 15 6 5 28 11 49
15 31 6 38 5 32 -6 -4 -8 -1 -6 7 4 17 21 56 22 63 2 4 -8 10 -15 15 -15 6 0
5 8 0 19 -14 25 12 31 121 30 131 -1 181 -23 218 -96 8 -15 19 -31 23 -34 8
-6 10 -30 6 -59 -5 -32 1 -80 10 -80 5 0 7 10 4 23 -4 17 -3 19 6 7 9 -13 6
-94 -5 -112 -3 -4 -11 -5 -19 -1 -8 3 -15 1 -16 -3 -4 -35 -5 -64 -3 -64 1 0
10 8 20 17 15 16 15 17 -2 25 -18 7 -18 8 1 5 12 -2 18 -9 16 -18 -2 -8 -3
-22 -3 -31 0 -10 -4 -20 -9 -23 -5 -4 -6 -11 -3 -17 4 -6 1 -16 -7 -22 -8 -6
-14 -28 -14 -50 0 -23 -5 -41 -13 -44 -9 -3 -11 7 -7 40 4 35 3 37 -4 12 -4
-17 -11 -36 -15 -42 -3 -6 1 -15 10 -20 22 -12 15 -56 -10 -60 -19 -4 -19 -3
-3 22 10 14 14 26 9 26 -14 0 -45 -77 -39 -94 4 -9 -1 -23 -10 -31 -15 -15
-14 -16 3 -13 13 2 19 -3 19 -17 0 -13 -8 -21 -23 -23 -20 -3 -21 -6 -10 -20
8 -10 9 -13 1 -9 -6 4 -14 3 -18 -3 -6 -9 7 -14 28 -11 4 0 7 -6 7 -15 0 -21
-19 -54 -31 -54 -6 0 -7 5 -3 12 4 7 3 8 -4 4 -17 -10 -15 -26 3 -26 22 0 18
-31 -5 -37 -19 -5 -19 -6 -4 -18 16 -11 15 -14 -3 -32 -14 -14 -18 -24 -11
-31 5 -5 8 -18 5 -28 -4 -16 -5 -15 -6 4 0 12 -5 22 -9 22 -10 0 -8 -42 2 -59
4 -6 5 -23 2 -37 -4 -13 -6 -27 -5 -31 0 -4 -9 -11 -21 -15 -13 -5 -18 -12
-14 -20 6 -9 9 -9 12 0 2 7 9 12 15 12 6 0 1 -11 -12 -23 -20 -22 -20 -25 -6
-37 15 -12 15 -14 1 -22 -9 -5 -21 -6 -26 -3 -11 7 -2 -23 11 -41 5 -6 6 -14
2 -17 -3 -4 -6 -19 -7 -34 -1 -19 -6 -27 -15 -25 -12 3 -12 0 -1 -12 10 -13
10 -16 -1 -16 -9 0 -10 -3 -4 -8 13 -9 18 -32 7 -32 -4 0 -9 -17 -10 -37 -2
-21 -7 -51 -12 -68 -15 -51 -21 -107 -10 -100 5 3 15 -5 21 -18 10 -22 14 -24
50 -16 51 12 130 9 147 -4 11 -9 13 -7 10 8 -2 13 3 20 15 21 12 1 13 1 2 -3
-8 -2 -13 -9 -9 -14 3 -5 10 -7 15 -4 5 4 12 -1 15 -9 4 -11 11 -13 31 -5 13
5 29 6 35 3 6 -4 8 -2 4 4 -3 6 0 12 9 14 9 2 12 8 6 16 -6 10 -15 9 -42 -7
l-35 -20 -1 20 c-1 14 4 19 15 18 9 -2 32 5 51 15 28 15 33 16 28 3 -3 -9 0
-21 8 -27 11 -9 12 -7 9 8 -4 13 3 22 22 30 31 15 41 10 19 -8 -19 -16 -19
-30 -1 -30 10 0 13 -7 11 -21 -4 -17 -2 -19 11 -8 8 6 12 14 10 17 -3 2 1 11
9 19 8 8 15 25 15 39 0 15 6 24 16 24 10 0 14 -6 10 -15 -3 -9 0 -15 10 -15
20 0 42 22 36 38 -2 6 3 12 12 12 10 0 13 -6 10 -15 -5 -11 1 -15 17 -15 19 0
21 2 9 10 -10 6 -11 10 -2 10 18 0 15 18 -5 23 -12 3 -9 5 8 6 15 0 32 7 38
15 7 8 23 17 37 20 15 4 22 11 18 18 -5 7 0 9 15 5 15 -4 24 0 29 11 12 34 57
61 65 39 2 -6 6 -3 10 7 4 10 3 15 -3 11 -6 -3 -10 -1 -10 4 0 6 9 11 20 11
11 0 20 5 20 10 0 6 11 15 25 22 13 6 22 15 19 19 -3 5 2 9 11 9 8 0 18 7 21
15 4 8 10 15 14 15 4 0 22 13 39 29 21 19 38 27 51 24 14 -4 20 0 20 12 0 20
38 57 51 49 5 -3 6 3 2 12 -4 11 -3 15 5 10 6 -3 17 2 24 12 7 10 29 29 48 43
19 13 45 34 58 47 15 14 32 22 43 19 11 -3 17 -1 13 4 -3 5 -13 9 -22 9 -14 1
-14 2 3 12 11 6 23 16 26 21 4 5 18 7 30 4 20 -5 21 -4 7 6 -14 9 -9 17 40 64
32 29 60 53 65 53 4 0 7 5 7 11 0 6 6 17 14 25 8 7 16 19 18 25 2 7 15 13 28
14 13 1 26 7 28 13 2 8 -3 10 -15 5 -16 -6 -16 -5 -4 10 7 9 18 14 23 10 6 -3
9 0 6 7 -6 18 27 50 50 50 14 0 15 2 2 10 -12 8 -12 11 3 28 9 10 17 24 17 31
0 9 9 12 25 9 13 -3 22 -2 20 3 -3 4 -2 9 2 12 5 2 2 2 -4 1 -7 -2 -13 0 -13
4 0 12 41 85 59 106 9 10 21 34 26 55 10 35 32 48 47 26 5 -6 8 -2 8 9 0 12
-5 16 -16 12 -11 -4 -14 -1 -12 12 2 11 11 16 26 14 12 -2 22 2 22 7 0 6 -6
11 -14 11 -9 0 -12 7 -9 20 6 22 29 27 35 8 3 -7 7 -2 10 10 4 12 2 25 -3 28
-5 3 -9 0 -9 -5 0 -6 -5 -11 -10 -11 -7 0 -7 7 0 21 7 11 18 18 25 15 7 -2 18
1 24 8 8 10 7 17 -6 27 -16 13 -17 12 -5 -3 9 -11 10 -18 2 -23 -20 -13 -21
23 -1 76 12 30 21 62 21 72 0 10 7 20 15 23 13 5 13 9 3 21 -10 12 -9 18 7 29
10 8 13 14 7 14 -14 0 -5 53 10 58 4 2 8 15 8 28 0 18 4 23 13 18 8 -5 8 -2
-2 9 -11 14 -11 17 0 18 10 0 11 2 2 6 -7 2 -13 11 -13 19 0 9 5 12 12 8 7 -4
8 -3 4 5 -11 17 -14 101 -4 107 5 3 4 12 -2 19 -6 7 -10 28 -9 46 2 19 -3 45
-10 58 -9 16 -11 40 -7 72 6 41 4 48 -9 43 -8 -3 -15 -2 -15 4 0 6 6 13 13 15
7 4 6 6 -4 6 -19 1 -34 41 -16 41 7 0 4 5 -5 11 -10 5 -18 16 -18 24 0 17 -66
146 -74 146 -3 -1 -5 0 -3 2 1 1 -15 19 -37 39 -21 20 -35 41 -32 46 3 6 -4
14 -16 18 -24 7 -46 27 -64 60 -6 10 -21 20 -33 22 -12 2 -19 8 -16 13 4 5 -1
9 -10 9 -12 0 -15 5 -10 18 5 13 3 14 -6 5 -14 -14 -39 -6 -39 12 0 7 -15 16
-34 19 -19 4 -37 13 -40 21 -3 9 -9 15 -13 14 -24 -4 -33 4 -33 26 0 27 -9 32
-26 15 -8 -8 -15 -6 -24 5 -7 8 -25 15 -41 15 -15 0 -31 5 -34 10 -4 6 -11 7
-17 4 -7 -5 -9 0 -6 13 4 16 2 19 -14 15 -16 -4 -17 -7 -6 -14 9 -7 7 -8 -7
-3 -11 4 -44 10 -74 13 -41 4 -55 9 -58 23 -3 11 -10 19 -15 19 -5 0 -6 -4 -3
-10 8 -12 -73 -11 -98 2 -10 5 -36 10 -58 10 -21 0 -42 4 -45 9 -3 5 -10 9
-16 9 -6 0 -5 -7 3 -17 12 -15 12 -16 -6 -9 -11 5 -28 10 -37 13 -9 3 -15 10
-14 16 2 7 1 9 -1 4 -3 -4 -10 -4 -15 -1 -7 4 -8 2 -4 -4 5 -8 -1 -12 -14 -12
-16 0 -20 5 -16 15 3 8 1 15 -4 15 -6 0 -10 -6 -10 -14 0 -11 -9 -13 -37 -9
-46 7 -55 13 -20 13 14 0 28 4 31 9 6 10 -21 8 -66 -4 -16 -4 -26 -10 -24 -14
3 -4 -40 -8 -95 -9 -86 -3 -98 -1 -93 12 4 11 0 16 -11 16 -9 0 -14 -4 -11 -8
10 -17 -12 -31 -59 -36 -97 -11 -140 -19 -146 -29 -4 -5 -20 -10 -36 -11 -16
-1 -40 -8 -54 -17 -13 -8 -35 -16 -49 -17 -14 -1 -45 -8 -69 -17 -24 -8 -74
-15 -112 -15 -56 0 -69 -3 -69 -16 0 -8 5 -12 10 -9 6 3 10 2 10 -3 0 -6 -18
-12 -41 -14 -37 -3 -40 -2 -35 18 5 17 0 23 -17 27 -21 6 -21 6 -3 -8 19 -14
18 -15 -12 -15 -18 0 -32 -5 -32 -11 0 -6 9 -8 22 -3 20 6 21 5 6 -10 -10 -9
-24 -13 -34 -9 -12 4 -15 3 -10 -5 5 -8 -1 -12 -18 -12 -14 0 -26 5 -26 11 0
5 -4 7 -10 4 -5 -3 -10 -1 -10 6 0 7 -8 5 -20 -6 -12 -10 -19 -24 -16 -31 2
-6 -5 -14 -17 -17 -12 -2 -31 -8 -42 -12 -14 -5 -16 -4 -6 3 10 7 6 10 -16 14
-27 4 -29 2 -26 -21 2 -15 1 -21 -3 -14 -10 21 -31 3 -27 -22 4 -19 -2 -27
-28 -41 -23 -11 -34 -13 -37 -5 -5 16 -27 14 -42 -4 -7 -8 -16 -12 -21 -9 -5
3 -6 -2 -3 -10 3 -9 14 -16 23 -16 11 0 12 3 4 8 -9 6 -7 11 7 20 16 10 20 10
20 -1 0 -21 -22 -37 -52 -37 -15 0 -28 -4 -28 -10 0 -5 -4 -10 -10 -10 -5 0
-8 6 -6 13 1 6 1 9 -1 4 -3 -4 -9 -5 -14 -2 -5 4 -6 -1 -3 -9 6 -14 -24 -33
-62 -40 -5 -1 -23 -12 -38 -24 -34 -26 -71 -29 -84 -6 -7 13 -11 14 -17 4 -4
-7 -2 -16 6 -21 10 -6 2 -9 -23 -9 -20 0 -39 4 -43 9 -3 6 4 8 15 6 11 -2 18
0 15 6 -4 5 -1 9 6 9 7 0 10 2 7 5 -11 11 -60 -15 -55 -30 4 -9 1 -12 -9 -8
-7 3 -14 11 -14 19 0 12 -12 16 -36 13 -4 0 -11 5 -15 13 -7 10 -9 9 -9 -4 0
-9 -5 -20 -10 -23 -18 -11 -60 23 -60 48 0 19 2 18 20 -10 21 -35 40 -43 40
-18 0 8 -7 15 -16 15 -10 0 -14 6 -11 14 6 15 -23 27 -52 21 -10 -2 -23 5 -29
16 -11 17 -9 19 10 20 14 1 10 4 -12 8 -30 5 -35 10 -35 34 1 29 -15 39 -16
10 0 -14 -3 -13 -11 5 -6 12 -16 22 -22 22 -6 0 -2 8 9 16 20 16 20 16 0 10
-14 -4 -24 1 -33 14 -7 12 -8 20 -2 20 17 0 11 47 -6 54 -9 4 -19 4 -22 1 -3
-3 -1 -5 5 -5 6 0 13 -9 16 -20 3 -11 1 -20 -4 -20 -5 0 -9 7 -9 15 0 8 -4 15
-8 15 -5 0 -14 11 -20 24 -10 22 -9 24 9 21 17 -4 19 -2 9 10 -7 8 -19 15 -27
15 -8 0 -21 17 -29 38 -8 20 -22 52 -31 71 -12 27 -13 35 -2 42 7 4 17 5 23 2
5 -3 6 -1 2 6 -5 7 -16 9 -28 5 -15 -4 -19 -2 -15 7 2 8 10 13 16 11 7 -1 9 2
6 8 -4 6 -14 9 -22 6 -11 -5 -13 -1 -8 15 5 13 3 19 -3 15 -5 -3 -18 7 -27 22
-18 27 -18 27 2 10 25 -23 34 -23 26 -1 -5 12 -3 14 7 8 9 -5 11 -4 6 4 -4 6
-12 8 -18 5 -6 -4 -8 1 -4 14 4 11 2 23 -4 27 -6 3 -8 11 -5 16 4 5 -1 9 -9 9
-20 0 -20 -14 -1 -30 15 -13 12 -30 -7 -30 -5 0 -8 7 -4 15 3 8 1 15 -3 15 -5
0 -14 14 -20 31 -13 39 -14 52 -2 45 10 -6 25 43 16 52 -3 3 -5 -1 -5 -9 0 -8
-9 0 -20 16 -22 33 -26 50 -10 40 6 -3 10 1 10 10 0 9 -4 13 -10 10 -5 -3 -10
-3 -10 2 0 4 -3 18 -6 31 -5 16 -2 22 10 22 9 0 16 4 16 9 0 5 -9 7 -21 4 -20
-5 -20 -3 -15 61 3 44 2 64 -5 60 -7 -4 -9 3 -7 17 1 12 9 24 17 27 8 3 11 0
7 -7 -4 -6 -3 -11 3 -11 6 0 8 15 5 36 -4 34 -3 36 21 32 14 -3 25 -4 25 -2 0
1 3 9 6 18 4 11 0 16 -12 16 -15 0 -14 3 6 17 14 10 29 17 34 15 5 -2 6 5 2
14 -4 11 -2 15 8 11 8 -3 17 1 20 10 6 14 8 14 21 -3 12 -16 16 -17 27 -5 9
10 9 12 1 7 -7 -4 -13 -2 -13 3 0 6 4 11 9 11 5 0 8 8 7 18 -1 12 6 17 22 16
12 0 22 2 22 6 0 3 16 6 36 7 44 1 78 28 54 43 -13 8 -13 10 2 10 9 0 25 3 35
7 17 6 17 6 0 -14 -18 -20 -18 -21 5 -19 19 1 23 6 21 26 -3 20 3 28 32 42 19
10 35 14 35 9 0 -14 -26 -31 -35 -23 -5 4 -4 1 0 -7 6 -11 4 -13 -9 -8 -10 4
-15 3 -11 -3 9 -15 35 -12 41 4 3 7 16 12 30 10 24 -2 34 11 12 18 -7 3 -9 12
-5 22 5 13 14 17 32 13 14 -2 23 -2 21 1 -8 7 26 31 43 32 8 0 23 7 33 17 17
15 18 15 18 -5 0 -23 14 -29 25 -12 4 6 11 7 17 4 7 -5 8 -2 4 5 -5 7 -14 10
-22 7 -8 -3 -14 -2 -14 2 0 11 97 45 109 38 5 -3 11 1 15 9 3 8 10 15 17 15 6
0 9 -7 5 -15 -6 -17 -4 -18 17 -9 9 3 13 13 9 26 -4 18 -1 20 35 17 28 -3 39
-1 36 7 -3 8 16 17 51 25 31 7 56 16 56 21 0 5 4 7 9 4 5 -4 11 -2 13 4 2 8
55 17 116 20 7 0 10 5 7 10 -3 6 5 10 19 10 14 0 28 -4 31 -10 3 -5 14 -10 23
-9 14 0 13 2 -3 9 -17 7 -17 9 -2 9 9 1 17 6 17 13 0 9 3 9 12 0 14 -14 44
-16 52 -3 4 5 -3 7 -14 4 -11 -3 -20 0 -20 6 0 6 17 12 38 13 56 2 58 2 76 17
15 12 20 8 17 -11 0 -5 6 -8 15 -8 13 0 14 3 5 13 -14 18 -4 27 30 27 22 0 27
-4 23 -17 -2 -10 1 -8 7 5 15 27 26 28 34 2 3 -11 10 -20 15 -20 10 0 8 19 -3
38 -6 8 1 15 18 22 33 12 45 13 25 0 -11 -7 -9 -11 14 -20 16 -6 34 -9 40 -6
6 2 3 5 -6 5 -20 1 -21 3 -12 25 4 11 18 16 43 15 20 0 30 -3 24 -6 -18 -7
-16 -20 2 -20 13 0 20 16 16 40 0 4 12 7 29 7 17 0 30 -5 30 -11 0 -8 4 -8 14
0 7 6 41 12 74 13 34 1 58 6 55 11 -3 5 5 7 18 5 13 -1 24 -8 24 -15 0 -6 4
-15 8 -20 5 -4 7 -1 5 7 -1 8 4 15 12 15 8 0 14 -6 12 -13 -2 -9 2 -11 10 -6
7 5 19 9 26 10 19 3 27 13 18 21 -4 4 -11 1 -16 -7 -8 -12 -10 -11 -11 5 l0
20 -9 -20 c-5 -11 -9 -14 -9 -6 -1 9 -8 11 -22 8 -15 -4 -19 -3 -12 4 6 6 29
13 52 16 37 5 41 4 41 -16 0 -11 4 -21 9 -21 5 0 7 9 4 20 -4 15 0 20 16 20
14 0 20 -4 15 -12 -5 -8 -2 -9 10 -5 10 4 20 7 22 7 3 0 3 4 -1 10 -3 5 7 8
25 7 16 -1 30 -5 30 -9z m419 -34 c37 -8 33 -21 -6 -18 -50 3 -54 4 -48 14 7
12 12 12 54 4z m561 -125 c0 -4 -7 -6 -15 -3 -8 4 -15 10 -15 15 0 4 7 6 15 3
8 -4 15 -10 15 -15z m-2840 -363 c0 -3 -4 -8 -10 -11 -5 -3 -10 -1 -10 4 0 6
5 11 10 11 6 0 10 -2 10 -4z m3959 -260 c0 -7 -2 -6 -6 2 -2 6 -9 10 -14 6 -5
-3 -9 2 -9 12 0 13 3 14 15 4 8 -7 15 -18 14 -24z m35 -15 c3 -5 -1 -12 -10
-15 -20 -8 -29 -1 -19 13 8 13 22 14 29 2z m206 -276 c0 -8 -4 -15 -10 -15 -5
0 -7 7 -4 15 4 8 8 15 10 15 2 0 4 -7 4 -15z m104 -185 c-6 -6 -10 -2 -11 12
-2 16 1 18 10 9 7 -7 8 -14 1 -21z m-1607 -252 c-3 -8 -6 -5 -6 6 -1 11 2 17
5 13 3 -3 4 -12 1 -19z m-1510 -4 c-3 -3 -12 -4 -19 -1 -8 3 -5 6 6 6 11 1 17
-2 13 -5z m-257 -59 c10 -12 10 -15 -4 -15 -9 0 -16 7 -16 15 0 8 2 15 4 15 2
0 9 -7 16 -15z m2004 -91 c5 -14 4 -15 -9 -4 -17 14 -19 20 -6 20 5 0 12 -7
15 -16z m-2684 -194 c24 -15 7 -19 -20 -5 -15 8 -19 14 -10 14 8 1 22 -3 30
-9z m4270 -90 c0 -16 -2 -30 -4 -30 -2 0 -6 14 -8 30 -3 17 -1 30 4 30 4 0 8
-13 8 -30z m55 -259 c3 -5 1 -12 -5 -16 -5 -3 -10 1 -10 9 0 18 6 21 15 7z
m-5 -125 c0 -2 -7 -7 -16 -10 -8 -3 -12 -2 -9 4 6 10 25 14 25 6z m-30 -347
c0 -11 -4 -18 -10 -14 -5 3 -7 12 -3 20 7 21 13 19 13 -6z m-2930 -81 c0 -16
-3 -19 -11 -11 -6 6 -8 16 -5 22 11 17 16 13 16 -11z m2880 -128 c-4 -16 -6
-31 -2 -34 3 -3 0 -6 -6 -6 -7 0 -13 8 -13 18 -1 15 -2 15 -6 -1 -3 -11 3 -24
14 -32 15 -12 15 -14 2 -15 -23 0 -40 42 -24 63 6 9 15 14 18 11 3 -3 3 4 0
15 -4 16 -2 20 10 15 12 -4 13 -12 7 -34z m-2960 -374 c0 -15 -18 -31 -26 -23
-7 7 7 37 17 37 5 0 9 -6 9 -14z m-20 -90 c0 -3 -4 -8 -10 -11 -5 -3 -10 -1
-10 4 0 6 5 11 10 11 6 0 10 -2 10 -4z m2761 -190 c5 3 9 0 9 -6 0 -7 -7 -9
-16 -6 -13 5 -14 3 -6 -6 7 -9 6 -18 -4 -32 -7 -10 -11 -22 -9 -27 3 -4 0 -11
-6 -15 -8 -4 -9 -3 -5 4 4 7 1 12 -6 13 -10 0 -10 2 0 6 6 2 10 9 6 14 -3 5
-2 15 3 22 8 12 8 15 13 40 1 9 3 9 7 -1 2 -6 9 -10 14 -6z m-2875 -303 c-10
-10 -19 5 -10 18 6 11 8 11 12 0 2 -7 1 -15 -2 -18z m5294 -93 c0 -5 -9 -10
-21 -10 -11 0 -17 5 -14 10 3 6 13 10 21 10 8 0 14 -4 14 -10z m130 -5 c0 -8
-4 -15 -10 -15 -5 0 -7 7 -4 15 4 8 8 15 10 15 2 0 4 -7 4 -15z m30 1 c0 -3
-4 -8 -10 -11 -5 -3 -10 -1 -10 4 0 6 5 11 10 11 6 0 10 -2 10 -4z m56 -33
c-10 -10 -19 5 -10 18 6 11 8 11 12 0 2 -7 1 -15 -2 -18z m-1536 -153 c0 -5
-4 -10 -9 -10 -6 0 -13 5 -16 10 -3 6 1 10 9 10 9 0 16 -4 16 -10z m2350 0
c13 -8 13 -10 -2 -10 -9 0 -20 5 -23 10 -8 13 5 13 25 0z m-5850 -9 c0 -6 -4
-13 -10 -16 -5 -3 -10 1 -10 9 0 9 5 16 10 16 6 0 10 -4 10 -9z m-70 -15 c0
-3 -4 -8 -10 -11 -5 -3 -10 -1 -10 4 0 6 5 11 10 11 6 0 10 -2 10 -4z m2070
-16 c0 -5 -5 -10 -11 -10 -5 0 -7 5 -4 10 3 6 8 10 11 10 2 0 4 -4 4 -10z
m1017 -162 c-3 -8 -6 -5 -6 6 -1 11 2 17 5 13 3 -3 4 -12 1 -19z m-69 -8 c-15
-24 -24 -25 -32 -4 -4 12 -2 15 9 11 8 -4 17 -2 20 3 4 6 8 10 11 10 2 0 -1
-9 -8 -20z m-38 -21 c0 -5 -4 -9 -10 -9 -5 0 -10 7 -10 16 0 8 5 12 10 9 6 -3
10 -10 10 -16z m3330 -29 c0 -5 -7 -10 -15 -10 -8 0 -15 5 -15 10 0 6 7 10 15
10 8 0 15 -4 15 -10z m474 -436 c6 -15 4 -15 -11 -3 -10 7 -20 15 -22 16 -2 2
3 3 11 3 9 0 19 -7 22 -16z m44 -65 l23 -40 -25 16 c-14 10 -26 21 -26 25 0 5
-3 15 -6 24 -12 32 12 15 34 -25z m-4181 -79 c1 -11 -2 -18 -8 -15 -11 7 -12
35 -1 35 4 0 8 -9 9 -20z m4338 -170 c3 -5 1 -10 -4 -10 -6 0 -11 5 -11 10 0
6 2 10 4 10 3 0 8 -4 11 -10z m5 -40 c0 13 2 13 9 0 6 -8 8 -17 5 -22 -8 -12
-34 3 -34 21 0 14 2 14 10 1 9 -13 10 -13 10 0z m30 -90 c0 -5 -5 -10 -11 -10
-5 0 -7 5 -4 10 3 6 8 10 11 10 2 0 4 -4 4 -10z m-4252 -56 c-4 -3 -12 5 -18
18 -12 22 -12 22 6 6 10 -10 15 -20 12 -24z m1160 -169 c-3 -3 -9 2 -12 12 -6
14 -5 15 5 6 7 -7 10 -15 7 -18z m-18 1 c0 -2 -7 -7 -16 -10 -8 -3 -12 -2 -9
4 6 10 25 14 25 6z m-4225 -826 c3 -5 1 -10 -4 -10 -6 0 -11 5 -11 10 0 6 2
10 4 10 3 0 8 -4 11 -10z m4050 -210 c-4 -6 -11 -8 -16 -5 -5 4 -9 1 -9 -5 0
-6 -5 -8 -11 -4 -8 4 -7 9 2 15 19 12 42 11 34 -1z m-385 -110 c0 -5 -7 -10
-16 -10 -8 0 -12 5 -9 10 3 6 10 10 16 10 5 0 9 -4 9 -10z m-1990 -264 c0 -2
-7 -6 -15 -10 -8 -3 -15 -1 -15 4 0 6 7 10 15 10 8 0 15 -2 15 -4z m102 -130
c11 -16 9 -36 -3 -36 -6 0 -13 9 -16 19 -3 12 -11 17 -19 14 -14 -5 -19 8 -8
20 8 7 37 -3 46 -17z m28 -56 c0 -5 -4 -10 -9 -10 -6 0 -13 5 -16 10 -3 6 1
10 9 10 9 0 16 -4 16 -10z m5650 -14 c0 -2 -7 -9 -15 -16 -13 -11 -14 -10 -9
4 5 14 24 23 24 12z m-5446 -197 c-3 -5 3 -9 12 -9 10 0 15 -3 11 -6 -10 -10
-47 7 -47 21 0 9 6 12 15 9 8 -4 12 -10 9 -15z m5043 -661 c-3 -8 -6 -5 -6 6
-1 11 2 17 5 13 3 -3 4 -12 1 -19z m-4217 -13 c0 -2 -7 -5 -15 -9 -9 -3 -15 0
-15 9 0 9 6 12 15 9 8 -4 15 -7 15 -9z m200 -114 c0 -4 -7 -8 -15 -8 -8 0 -15
6 -15 13 0 8 6 11 15 8 8 -4 15 -9 15 -13z m1475 -71 c-3 -5 -13 -10 -21 -10
-8 0 -14 5 -14 10 0 6 9 10 21 10 11 0 17 -4 14 -10z m271 -1135 c-36 -19 -45
-19 -20 0 10 8 26 14 34 15 8 0 2 -7 -14 -15z"/>
<path d="M5635 13209 c4 -5 15 -14 27 -20 15 -8 19 -8 14 0 -4 6 -2 11 5 11
22 0 0 13 -26 16 -14 1 -23 -2 -20 -7z"/>
<path d="M5718 13213 c-26 -7 -22 -18 7 -21 18 -1 23 2 19 13 -4 8 -7 14 -8
14 0 -1 -9 -3 -18 -6z"/>
<path d="M5602 13196 c7 -8 16 -12 21 -9 11 7 -2 23 -19 23 -12 0 -12 -2 -2
-14z"/>
<path d="M5190 13169 c0 -5 5 -7 10 -4 6 3 10 1 10 -4 0 -6 4 -11 10 -11 5 0
7 7 4 15 -7 17 -34 21 -34 4z"/>
<path d="M5260 13171 c0 -6 5 -13 10 -16 6 -3 10 1 10 9 0 9 -4 16 -10 16 -5
0 -10 -4 -10 -9z"/>
<path d="M5310 13169 c0 -5 -6 -7 -12 -3 -10 5 -10 4 -1 -6 7 -8 22 -10 38 -6
29 7 27 18 -5 23 -11 2 -20 -2 -20 -8z"/>
<path d="M4921 13094 c0 -11 3 -14 6 -6 3 7 2 16 -1 19 -3 4 -6 -2 -5 -13z"/>
<path d="M4845 13070 c-3 -5 -12 -7 -20 -3 -10 3 -15 -1 -15 -12 0 -10 5 -14
13 -11 6 3 20 9 30 12 9 4 17 10 17 15 0 12 -17 11 -25 -1z"/>
<path d="M4650 13030 c0 -5 5 -10 10 -10 6 0 10 5 10 10 0 6 -4 10 -10 10 -5
0 -10 -4 -10 -10z"/>
<path d="M4525 12990 c3 -5 10 -10 16 -10 5 0 9 5 9 10 0 6 -7 10 -16 10 -8 0
-12 -4 -9 -10z"/>
<path d="M4330 12930 c0 -5 5 -10 11 -10 5 0 7 5 4 10 -3 6 -8 10 -11 10 -2 0
-4 -4 -4 -10z"/>
<path d="M4215 12890 c-3 -5 -2 -10 4 -10 5 0 13 5 16 10 3 6 2 10 -4 10 -5 0
-13 -4 -16 -10z"/>
<path d="M7000 12890 c8 -5 22 -9 30 -9 10 0 8 3 -5 9 -27 12 -43 12 -25 0z"/>
<path d="M3995 12800 c3 -5 8 -10 11 -10 2 0 4 5 4 10 0 6 -5 10 -11 10 -5 0
-7 -4 -4 -10z"/>
<path d="M7350 12720 c0 -5 5 -10 11 -10 5 0 7 5 4 10 -3 6 -8 10 -11 10 -2 0
-4 -4 -4 -10z"/>
<path d="M3710 12650 c0 -5 5 -10 11 -10 5 0 7 5 4 10 -3 6 -8 10 -11 10 -2 0
-4 -4 -4 -10z"/>
<path d="M3623 12578 c-13 -6 -23 -15 -23 -20 0 -14 16 -9 35 12 20 22 19 23
-12 8z"/>
<path d="M3531 12391 c-9 -6 -10 -10 -2 -16 9 -5 9 -10 1 -20 -8 -10 -8 -15 1
-20 16 -10 30 16 18 32 -6 7 -8 17 -4 23 7 12 4 12 -14 1z"/>
<path d="M7820 12301 c0 -6 4 -12 8 -15 5 -3 9 1 9 9 0 8 -4 15 -9 15 -4 0 -8
-4 -8 -9z"/>
<path d="M3562 12230 c0 -14 2 -19 5 -12 2 6 2 18 0 25 -3 6 -5 1 -5 -13z"/>
<path d="M7550 12236 c0 -2 7 -7 16 -10 8 -3 12 -2 9 4 -6 10 -25 14 -25 6z"/>
<path d="M7880 12230 c0 -5 5 -10 11 -10 5 0 7 5 4 10 -3 6 -8 10 -11 10 -2 0
-4 -4 -4 -10z"/>
<path d="M3581 12104 c0 -11 3 -14 6 -6 3 7 2 16 -1 19 -3 4 -6 -2 -5 -13z"/>
<path d="M8024 12031 c4 -5 0 -12 -6 -14 -7 -3 3 -5 22 -5 19 0 27 2 18 5 -10
2 -18 9 -18 14 0 5 -5 9 -11 9 -5 0 -8 -4 -5 -9z"/>
<path d="M5650 11873 c0 -10 4 -14 8 -8 4 6 11 13 16 18 5 4 2 7 -7 7 -10 0
-17 -8 -17 -17z"/>
<path d="M6054 11858 c-4 -7 -4 -10 1 -6 4 4 16 3 26 -3 11 -5 19 -7 19 -5 0
3 -9 10 -19 16 -15 7 -22 7 -27 -2z"/>
<path d="M8096 11855 c4 -8 11 -12 16 -9 6 4 5 -3 -1 -15 -10 -17 -9 -20 4
-15 10 4 15 0 15 -10 0 -9 5 -16 11 -16 5 0 8 4 4 9 -3 5 -1 12 4 16 12 7 -27
55 -45 55 -8 0 -11 -6 -8 -15z"/>
<path d="M3660 11851 c0 -5 6 -14 14 -20 8 -7 17 -23 20 -37 4 -14 11 -22 16
-19 6 4 5 14 -3 27 -16 28 -47 60 -47 49z"/>
<path d="M5388 11853 c6 -2 18 -2 25 0 6 3 1 5 -13 5 -14 0 -19 -2 -12 -5z"/>
<path d="M5350 11840 c0 -5 5 -10 11 -10 5 0 7 5 4 10 -3 6 -8 10 -11 10 -2 0
-4 -4 -4 -10z"/>
<path d="M6250 11829 c0 -6 -9 -9 -20 -6 -11 3 -20 1 -20 -4 0 -5 11 -9 25 -9
16 0 25 6 25 15 0 8 -2 15 -5 15 -3 0 -5 -5 -5 -11z"/>
<path d="M5186 11797 c3 -10 9 -15 12 -12 3 3 0 11 -7 18 -10 9 -11 8 -5 -6z"/>
<path d="M6400 11786 c0 -2 7 -7 16 -10 8 -3 12 -2 9 4 -6 10 -25 14 -25 6z"/>
<path d="M5016 11761 c-4 -5 3 -7 14 -4 23 6 26 13 6 13 -8 0 -17 -4 -20 -9z"/>
<path d="M5061 11753 c0 -11 3 -13 6 -5 2 6 10 9 15 6 7 -4 8 -2 4 4 -11 18
-26 14 -25 -5z"/>
<path d="M4945 11751 c-3 -6 4 -9 15 -8 11 1 20 5 20 9 0 11 -28 10 -35 -1z"/>
<path d="M6520 11730 c0 -5 5 -10 11 -10 5 0 7 5 4 10 -3 6 -8 10 -11 10 -2 0
-4 -4 -4 -10z"/>
<path d="M4881 11714 c0 -11 3 -14 6 -6 3 7 2 16 -1 19 -3 4 -6 -2 -5 -13z"/>
<path d="M6564 11712 c3 -5 1 -12 -6 -14 -8 -3 -9 -6 -1 -11 6 -4 13 0 17 8 3
8 0 17 -6 21 -6 4 -8 3 -4 -4z"/>
<path d="M4646 11671 c-3 -5 2 -15 12 -22 15 -12 16 -12 5 2 -7 9 -10 19 -6
22 3 4 4 7 0 7 -3 0 -8 -4 -11 -9z"/>
<path d="M4331 11464 c0 -11 3 -14 6 -6 3 7 2 16 -1 19 -3 4 -6 -2 -5 -13z"/>
<path d="M8304 10778 c0 -15 5 -28 12 -28 7 0 15 -6 17 -12 3 -7 6 -1 6 15 1
15 -3 27 -9 27 -5 0 -7 6 -4 13 3 8 -1 14 -9 14 -8 0 -13 -11 -13 -29z"/>
<path d="M8310 10630 c0 -5 5 -10 10 -10 6 0 10 5 10 10 0 6 -4 10 -10 10 -5
0 -10 -4 -10 -10z"/>
<path d="M5250 10622 c0 -4 11 -9 25 -10 14 -1 25 3 25 8 0 6 -11 10 -25 10
-14 0 -25 -4 -25 -8z"/>
<path d="M4866 10612 c-3 -6 1 -13 10 -16 23 -9 28 -2 10 13 -8 7 -17 8 -20 3z"/>
<path d="M5290 10589 c0 -5 4 -8 10 -4 5 3 16 -8 25 -25 8 -16 18 -30 20 -30
12 0 3 29 -14 48 -20 23 -41 29 -41 11z"/>
<path d="M4780 10580 c-13 -8 -12 -10 3 -10 9 0 17 5 17 10 0 12 -1 12 -20 0z"/>
<path d="M4825 10580 c3 -5 8 -10 11 -10 2 0 4 5 4 10 0 6 -5 10 -11 10 -5 0
-7 -4 -4 -10z"/>
<path d="M6980 10506 c0 -2 7 -7 16 -10 8 -3 12 -2 9 4 -6 10 -25 14 -25 6z"/>
<path d="M6965 10450 c3 -5 11 -10 16 -10 6 0 7 5 4 10 -3 6 -11 10 -16 10 -6
0 -7 -4 -4 -10z"/>
<path d="M8263 10445 c-3 -9 -3 -18 -1 -21 3 -3 8 4 11 16 6 23 -1 27 -10 5z"/>
<path d="M5347 10409 c7 -7 15 -10 18 -7 3 3 -2 9 -12 12 -14 6 -15 5 -6 -5z"/>
<path d="M5366 10381 c-3 -4 2 -17 10 -27 14 -17 15 -17 10 -1 -3 9 -1 17 4
17 6 0 10 5 10 10 0 12 -27 13 -34 1z"/>
<path d="M5344 10223 c3 -6 -1 -13 -10 -15 -16 -3 -16 -4 -1 -17 14 -11 18
-11 23 4 4 9 1 22 -6 28 -10 9 -11 9 -6 0z"/>
<path d="M6845 10180 c-10 -11 -14 -20 -9 -20 5 0 15 9 22 20 7 11 11 20 9 20
-2 0 -12 -9 -22 -20z"/>
<path d="M8210 10176 c0 -9 5 -16 10 -16 6 0 10 4 10 9 0 6 -4 13 -10 16 -5 3
-10 -1 -10 -9z"/>
<path d="M6810 10140 c0 -6 7 -10 15 -10 8 0 15 2 15 4 0 2 -7 6 -15 10 -8 3
-15 1 -15 -4z"/>
<path d="M6796 10101 c-17 -19 -17 -19 1 -15 11 3 20 12 20 20 0 18 0 18 -21
-5z"/>
<path d="M8170 10040 c0 -5 5 -10 10 -10 6 0 10 5 10 10 0 6 -4 10 -10 10 -5
0 -10 -4 -10 -10z"/>
<path d="M8160 10010 c0 -5 5 -10 10 -10 6 0 10 5 10 10 0 6 -4 10 -10 10 -5
0 -10 -4 -10 -10z"/>
<path d="M6732 9994 c-7 -8 -8 -14 -3 -14 10 0 25 19 20 25 -2 1 -10 -3 -17
-11z"/>
<path d="M3980 9937 c0 -9 4 -18 9 -21 5 -4 8 1 7 9 -3 21 -16 31 -16 12z"/>
<path d="M5255 9910 c3 -5 10 -10 16 -10 5 0 9 5 9 10 0 6 -7 10 -16 10 -8 0
-12 -4 -9 -10z"/>
<path d="M3965 9839 c-11 -16 -1 -19 13 -3 7 8 8 14 3 14 -5 0 -13 -5 -16 -11z"/>
<path d="M5236 9826 c3 -9 11 -16 16 -16 13 0 5 23 -10 28 -7 2 -10 -2 -6 -12z"/>
<path d="M6570 9800 c0 -5 7 -6 17 -3 12 5 14 3 8 -7 -5 -9 -4 -11 4 -6 6 4 9
12 6 17 -8 12 -35 12 -35 -1z"/>
<path d="M8061 9757 c-6 -8 -8 -17 -4 -20 11 -12 19 -7 20 13 2 24 -1 25 -16
7z"/>
<path d="M5225 9750 c-3 -5 1 -10 9 -10 9 0 16 5 16 10 0 6 -4 10 -9 10 -6 0
-13 -4 -16 -10z"/>
<path d="M5200 9715 c0 -10 29 -24 34 -17 3 6 -3 12 -14 15 -11 3 -20 4 -20 2z"/>
<path d="M3910 9568 c0 -19 2 -20 10 -8 13 19 13 30 0 30 -5 0 -10 -10 -10
-22z"/>
<path d="M5196 9582 c-2 -4 -1 -14 5 -22 7 -12 9 -10 9 8 0 23 -5 28 -14 14z"/>
<path d="M6273 9524 c-7 -3 -9 -12 -6 -19 4 -12 7 -12 19 0 23 22 17 31 -13
19z"/>
<path d="M7927 9513 c6 -16 25 -13 31 5 2 6 -6 10 -16 9 -12 -1 -18 -6 -15
-14z"/>
<path d="M7911 9484 c0 -11 3 -14 6 -6 3 7 2 16 -1 19 -3 4 -6 -2 -5 -13z"/>
<path d="M7905 9430 c3 -5 8 -10 11 -10 2 0 4 5 4 10 0 6 -5 10 -11 10 -5 0
-7 -4 -4 -10z"/>
<path d="M6104 9392 c-13 -8 -29 -52 -19 -52 3 0 9 11 14 23 8 20 15 23 43 19
18 -2 29 -1 25 4 -11 11 -50 15 -63 6z"/>
<path d="M5136 9333 c-6 -14 -5 -15 5 -6 7 7 10 15 7 18 -3 3 -9 -2 -12 -12z"/>
<path d="M5995 9290 c-3 -5 -1 -10 4 -10 6 0 11 5 11 10 0 6 -2 10 -4 10 -3 0
-8 -4 -11 -10z"/>
<path d="M7790 9289 c0 -5 5 -7 10 -4 6 3 10 8 10 11 0 2 -4 4 -10 4 -5 0 -10
-5 -10 -11z"/>
<path d="M10013 9245 c0 -11 4 -12 14 -4 7 6 13 13 13 15 0 2 -6 4 -13 4 -8 0
-14 -7 -14 -15z"/>
<path d="M10896 9231 c-8 -13 20 -33 40 -29 17 3 17 4 0 21 -19 19 -32 22 -40
8z"/>
<path d="M10957 9197 c-3 -8 11 -12 49 -12 29 -1 51 2 48 6 -2 4 2 9 8 12 7 2
-12 5 -44 5 -35 1 -58 -3 -61 -11z"/>
<path d="M11120 9190 c0 -5 5 -10 11 -10 5 0 7 5 4 10 -3 6 -8 10 -11 10 -2 0
-4 -4 -4 -10z"/>
<path d="M11146 9174 c-5 -14 -4 -15 9 -4 17 14 19 20 6 20 -5 0 -12 -7 -15
-16z"/>
<path d="M9490 9168 c0 -4 6 -8 14 -8 8 0 17 4 20 8 2 4 -4 8 -15 8 -10 0 -19
-4 -19 -8z"/>
<path d="M11203 9173 c10 -3 16 -11 14 -18 -4 -8 3 -12 19 -12 14 0 23 4 21
11 -3 6 -10 10 -16 9 -6 -2 -11 2 -11 7 0 6 -10 9 -22 9 -19 -1 -19 -2 -5 -6z"/>
<path d="M9360 9157 c0 -2 6 -10 14 -16 11 -9 16 -9 22 1 4 7 4 10 -1 6 -4 -4
-14 -3 -22 3 -7 6 -13 9 -13 6z"/>
<path d="M9280 9140 c-13 -8 -13 -10 2 -10 9 0 20 5 23 10 8 13 -5 13 -25 0z"/>
<path d="M9305 9119 c-4 -6 -5 -12 -2 -15 7 -7 37 7 37 17 0 13 -27 11 -35 -2z"/>
<path d="M11401 9116 c-10 -12 -8 -13 8 -9 12 3 18 9 15 14 -7 12 -10 11 -23
-5z"/>
<path d="M3854 9109 c-3 -6 -2 -15 3 -20 5 -5 9 -1 9 11 0 23 -2 24 -12 9z"/>
<path d="M11436 9092 c-3 -5 1 -9 9 -9 8 0 15 4 15 9 0 4 -4 8 -9 8 -6 0 -12
-4 -15 -8z"/>
<path d="M11503 9060 c-34 -14 -28 -19 11 -10 19 4 37 5 40 2 4 -3 6 0 6 6 0
14 -25 15 -57 2z"/>
<path d="M5185 8970 c3 -5 14 -10 23 -10 15 0 15 2 2 10 -20 13 -33 13 -25 0z"/>
<path d="M5295 8969 c-4 -6 -4 -13 -1 -16 3 -4 6 -1 6 6 0 7 5 9 12 5 7 -4 8
-3 4 4 -9 15 -13 15 -21 1z"/>
<path d="M7520 8945 c-7 -9 -8 -15 -2 -15 5 0 12 7 16 15 3 8 4 15 2 15 -2 0
-9 -7 -16 -15z"/>
<path d="M11687 8953 c7 -2 15 -3 17 -1 3 2 12 -6 21 -17 10 -13 14 -15 13 -5
-4 20 -19 30 -43 29 -11 0 -14 -3 -8 -6z"/>
<path d="M3810 8946 c0 -2 8 -10 18 -17 15 -13 16 -12 3 4 -13 16 -21 21 -21
13z"/>
<path d="M11755 8920 c-3 -5 -1 -10 4 -10 6 0 11 5 11 10 0 6 -2 10 -4 10 -3
0 -8 -4 -11 -10z"/>
<path d="M7486 8904 c-5 -14 -4 -15 9 -4 17 14 19 20 6 20 -5 0 -12 -7 -15
-16z"/>
<path d="M7447 8863 c-4 -3 -7 -11 -7 -17 0 -6 5 -5 12 2 6 6 9 14 7 17 -3 3
-9 2 -12 -2z"/>
<path d="M8494 8838 c-10 -15 0 -18 32 -9 l29 8 -28 5 c-15 3 -30 1 -33 -4z"/>
<path d="M3780 8785 c0 -8 4 -15 10 -15 5 0 7 7 4 15 -4 8 -8 15 -10 15 -2 0
-4 -7 -4 -15z"/>
<path d="M7380 8789 c0 -5 -5 -7 -12 -3 -7 4 -8 3 -4 -5 6 -9 11 -9 22 0 17
14 18 19 4 19 -5 0 -10 -5 -10 -11z"/>
<path d="M8260 8700 c0 -5 9 -10 21 -10 11 0 17 5 14 10 -3 6 -13 10 -21 10
-8 0 -14 -4 -14 -10z"/>
<path d="M7185 8600 c3 -5 8 -10 11 -10 2 0 4 5 4 10 0 6 -5 10 -11 10 -5 0
-7 -4 -4 -10z"/>
<path d="M12200 8510 c-9 -6 -10 -10 -3 -10 6 0 15 5 18 10 8 12 4 12 -15 0z"/>
<path d="M7015 8440 c3 -5 10 -10 16 -10 5 0 9 5 9 10 0 6 -7 10 -16 10 -8 0
-12 -4 -9 -10z"/>
<path d="M12305 8401 c-3 -5 -2 -12 3 -15 5 -3 9 1 9 9 0 17 -3 19 -12 6z"/>
<path d="M6970 8390 c-8 -5 -10 -10 -5 -10 6 0 17 5 25 10 8 5 11 10 5 10 -5
0 -17 -5 -25 -10z"/>
<path d="M6938 8363 c6 -2 18 -2 25 0 6 3 1 5 -13 5 -14 0 -19 -2 -12 -5z"/>
<path d="M8211 8344 c0 -11 3 -14 6 -6 3 7 2 16 -1 19 -3 4 -6 -2 -5 -13z"/>
<path d="M6897 8328 c-4 -12 -4 -24 -2 -27 3 -2 5 1 5 7 0 7 7 12 15 12 9 0
12 6 9 15 -9 22 -21 18 -27 -7z"/>
<path d="M8231 8314 c0 -11 3 -14 6 -6 3 7 2 16 -1 19 -3 4 -6 -2 -5 -13z"/>
<path d="M6823 8283 c-7 -3 -13 -9 -13 -15 0 -7 5 -6 14 1 11 9 15 9 19 -1 4
-9 6 -9 6 -1 1 15 -10 22 -26 16z"/>
<path d="M12461 8234 c0 -11 3 -14 6 -6 3 7 2 16 -1 19 -3 4 -6 -2 -5 -13z"/>
<path d="M6610 8168 c0 -4 4 -8 9 -8 6 0 12 4 15 8 3 5 -1 9 -9 9 -8 0 -15 -4
-15 -9z"/>
<path d="M6570 8146 c0 -9 5 -16 10 -16 6 0 10 4 10 9 0 6 -4 13 -10 16 -5 3
-10 -1 -10 -9z"/>
<path d="M6493 8093 c-7 -2 -13 -9 -13 -15 0 -7 5 -7 13 1 8 6 16 8 19 5 3 -3
9 -1 13 5 6 11 -10 13 -32 4z"/>
<path d="M3660 8079 c0 -5 5 -7 10 -4 6 3 10 8 10 11 0 2 -4 4 -10 4 -5 0 -10
-5 -10 -11z"/>
<path d="M6436 8071 c-3 -5 1 -11 9 -15 8 -3 15 -1 15 4 0 13 -18 22 -24 11z"/>
<path d="M12500 8071 c0 -5 5 -13 10 -16 6 -3 10 -2 10 4 0 5 -4 13 -10 16 -5
3 -10 2 -10 -4z"/>
<path d="M8290 8060 c0 -5 5 -10 10 -10 6 0 10 5 10 10 0 6 -4 10 -10 10 -5 0
-10 -4 -10 -10z"/>
<path d="M6375 8040 c-3 -5 -2 -10 4 -10 5 0 13 5 16 10 3 6 2 10 -4 10 -5 0
-13 -4 -16 -10z"/>
<path d="M4626 8032 c-3 -5 1 -9 9 -9 8 0 12 4 9 9 -3 4 -7 8 -9 8 -2 0 -6 -4
-9 -8z"/>
<path d="M6348 8013 c6 -2 18 -2 25 0 6 3 1 5 -13 5 -14 0 -19 -2 -12 -5z"/>
<path d="M6288 7993 c7 -3 16 -2 19 1 4 3 -2 6 -13 5 -11 0 -14 -3 -6 -6z"/>
<path d="M8320 7995 c0 -7 30 -13 34 -7 3 4 -4 9 -15 9 -10 1 -19 0 -19 -2z"/>
<path d="M10287 7924 c2 -7 11 -10 19 -7 19 7 18 10 -5 16 -13 3 -18 1 -14 -9z"/>
<path d="M10174 7920 c-5 -5 -25 -12 -42 -14 -34 -4 -49 -12 -40 -21 3 -3 25
1 48 9 23 8 48 12 55 10 7 -3 16 0 21 7 5 8 3 10 -6 4 -7 -4 -15 -3 -19 4 -5
7 -10 8 -17 1z"/>
<path d="M10398 7913 c7 -3 16 -2 19 1 4 3 -2 6 -13 5 -11 0 -14 -3 -6 -6z"/>
<path d="M12608 7885 c2 -14 8 -25 12 -25 10 0 1 38 -10 45 -4 2 -5 -7 -2 -20z"/>
<path d="M9818 7863 c-10 -2 -18 -9 -18 -14 0 -14 16 -11 30 6 7 8 11 14 9 14
-2 -1 -12 -3 -21 -6z"/>
<path d="M9373 7757 c-3 -5 -1 -13 4 -18 5 -5 13 -1 20 10 9 14 8 18 -3 18 -8
0 -17 -4 -21 -10z"/>
<path d="M11230 7731 c0 -6 4 -13 10 -16 6 -3 7 1 4 9 -7 18 -14 21 -14 7z"/>
<path d="M6246 7705 c4 -8 10 -12 15 -9 11 6 2 24 -11 24 -5 0 -7 -7 -4 -15z"/>
<path d="M9278 7706 c-22 -16 -23 -26 -3 -26 8 0 15 5 15 11 0 5 4 8 8 5 5 -3
9 1 9 9 0 18 -7 18 -29 1z"/>
<path d="M9353 7713 c9 -2 23 -2 30 0 6 3 -1 5 -18 5 -16 0 -22 -2 -12 -5z"/>
<path d="M6270 7642 c6 -13 14 -21 18 -18 3 4 -2 14 -12 24 -18 16 -18 16 -6
-6z"/>
<path d="M8935 7550 c-3 -5 -1 -10 4 -10 6 0 11 5 11 10 0 6 -2 10 -4 10 -3 0
-8 -4 -11 -10z"/>
<path d="M8708 7463 c7 -3 16 -2 19 1 4 3 -2 6 -13 5 -11 0 -14 -3 -6 -6z"/>
<path d="M8700 7441 c0 -5 11 -8 25 -8 14 0 25 2 25 6 0 4 -11 8 -25 9 -14 1
-25 -2 -25 -7z"/>
<path d="M12316 7388 c3 -5 10 -6 15 -3 13 9 11 12 -6 12 -8 0 -12 -4 -9 -9z"/>
<path d="M11518 7313 c7 -3 16 -2 19 1 4 3 -2 6 -13 5 -11 0 -14 -3 -6 -6z"/>
<path d="M12835 7231 c-3 -5 0 -13 6 -17 7 -4 9 -3 5 4 -3 5 0 13 6 15 9 4 10
6 1 6 -6 1 -14 -3 -18 -8z"/>
<path d="M5213 7085 c0 -8 4 -12 9 -9 5 3 6 10 3 15 -9 13 -12 11 -12 -6z"/>
<path d="M11561 6864 c0 -11 3 -14 6 -6 3 7 2 16 -1 19 -3 4 -6 -2 -5 -13z"/>
<path d="M4851 6804 c0 -11 3 -14 6 -6 3 7 2 16 -1 19 -3 4 -6 -2 -5 -13z"/>
<path d="M6611 6811 c-10 -7 -10 -10 -1 -16 6 -4 16 -3 22 3 13 13 -4 23 -21
13z"/>
<path d="M5317 6769 c7 -7 15 -10 18 -7 3 3 -2 9 -12 12 -14 6 -15 5 -6 -5z"/>
<path d="M6620 6770 c0 -6 4 -9 9 -6 5 4 12 1 14 -4 3 -6 4 -5 3 2 -3 15 -26
23 -26 8z"/>
<path d="M9741 6706 c2 -2 15 -9 29 -15 24 -11 24 -11 6 3 -16 13 -49 24 -35
12z"/>
<path d="M5363 6648 c-2 -18 0 -20 7 -8 12 18 13 30 2 30 -4 0 -9 -10 -9 -22z"/>
<path d="M9160 6645 c-7 -8 -16 -12 -21 -9 -5 3 -9 0 -9 -5 0 -6 6 -11 14 -11
15 0 42 28 34 35 -3 3 -11 -1 -18 -10z"/>
<path d="M9190 6650 c0 -5 5 -10 10 -10 6 0 10 5 10 10 0 6 -4 10 -10 10 -5 0
-10 -4 -10 -10z"/>
<path d="M3530 6610 c0 -11 4 -20 8 -20 4 0 8 9 8 20 0 11 -4 20 -8 20 -4 0
-8 -9 -8 -20z"/>
<path d="M11508 6598 c-6 -32 6 -58 15 -34 4 9 3 26 -2 38 -8 21 -8 21 -13 -4z"/>
<path d="M8960 6580 c0 -5 5 -10 11 -10 5 0 7 5 4 10 -3 6 -8 10 -11 10 -2 0
-4 -4 -4 -10z"/>
<path d="M5416 6525 c4 -8 8 -15 10 -15 2 0 4 7 4 15 0 8 -4 15 -10 15 -5 0
-7 -7 -4 -15z"/>
<path d="M5456 6431 c-4 -5 -2 -12 3 -15 5 -4 12 -2 15 3 4 5 2 12 -3 15 -5 4
-12 2 -15 -3z"/>
<path d="M12750 6430 c-13 -8 -12 -10 3 -10 9 0 17 5 17 10 0 12 -1 12 -20 0z"/>
<path d="M4770 6385 c0 -8 2 -15 4 -15 2 0 6 7 10 15 3 8 1 15 -4 15 -6 0 -10
-7 -10 -15z"/>
<path d="M6881 6347 c-8 -10 -7 -14 4 -14 8 0 15 6 15 14 0 7 -2 13 -4 13 -2
0 -9 -6 -15 -13z"/>
<path d="M9851 6334 c0 -11 3 -14 6 -6 3 7 2 16 -1 19 -3 4 -6 -2 -5 -13z"/>
<path d="M11437 6301 c-4 -17 -3 -21 5 -13 5 5 8 16 6 23 -3 8 -7 3 -11 -10z"/>
<path d="M8555 6280 c3 -5 8 -10 11 -10 2 0 4 5 4 10 0 6 -5 10 -11 10 -5 0
-7 -4 -4 -10z"/>
<path d="M11401 6234 c0 -11 3 -14 6 -6 3 7 2 16 -1 19 -3 4 -6 -2 -5 -13z"/>
<path d="M8530 6193 c0 -21 3 -24 9 -14 5 8 7 20 4 28 -8 21 -13 15 -13 -14z"/>
<path d="M5576 6175 c4 -8 10 -15 15 -15 5 0 9 7 9 15 0 8 -7 15 -15 15 -9 0
-12 -6 -9 -15z"/>
<path d="M11360 6185 c0 -2 7 -8 15 -15 12 -10 15 -10 15 2 0 8 -7 15 -15 15
-8 0 -15 -1 -15 -2z"/>
<path d="M5601 6141 c-8 -6 -9 -11 -3 -15 6 -3 14 -1 17 5 9 14 2 20 -14 10z"/>
<path d="M4000 6116 c0 -2 7 -9 15 -16 13 -11 14 -10 9 4 -5 14 -24 23 -24 12z"/>
<path d="M4058 6085 c15 -11 27 -14 33 -8 6 6 5 10 -3 10 -7 0 -22 4 -33 8
-16 6 -16 4 3 -10z"/>
<path d="M5630 6081 c0 -6 4 -13 10 -16 6 -3 7 1 4 9 -7 18 -14 21 -14 7z"/>
<path d="M11310 6070 c0 -5 5 -10 11 -10 5 0 7 5 4 10 -3 6 -8 10 -11 10 -2 0
-4 -4 -4 -10z"/>
<path d="M4338 5993 c7 -3 16 -2 19 1 4 3 -2 6 -13 5 -11 0 -14 -3 -6 -6z"/>
<path d="M7187 5984 c7 -3 9 -13 6 -22 -4 -14 -3 -14 5 -2 12 16 7 30 -11 29
-9 0 -9 -2 0 -5z"/>
<path d="M12626 5938 c-8 -12 -12 -26 -9 -31 3 -6 10 -1 14 11 5 12 13 22 19
22 5 0 10 5 10 10 0 17 -18 11 -34 -12z"/>
<path d="M8469 5868 c-5 -19 -3 -58 3 -58 4 0 8 3 9 8 0 4 2 15 4 24 2 14 -13
39 -16 26z"/>
<path d="M12610 5860 c0 -5 5 -10 10 -10 6 0 10 5 10 10 0 6 -4 10 -10 10 -5
0 -10 -4 -10 -10z"/>
<path d="M7330 5830 c0 -5 5 -10 11 -10 5 0 7 5 4 10 -3 6 -8 10 -11 10 -2 0
-4 -4 -4 -10z"/>
<path d="M11150 5830 c0 -5 5 -10 11 -10 5 0 7 5 4 10 -3 6 -8 10 -11 10 -2 0
-4 -4 -4 -10z"/>
<path d="M7378 5773 c7 -3 16 -2 19 1 4 3 -2 6 -13 5 -11 0 -14 -3 -6 -6z"/>
<path d="M8461 5704 c0 -11 3 -14 6 -6 3 7 2 16 -1 19 -3 4 -6 -2 -5 -13z"/>
<path d="M7525 5660 c-3 -5 0 -10 9 -10 8 0 17 -6 19 -12 4 -8 6 -9 6 -2 1 18
-26 37 -34 24z"/>
<path d="M12500 5639 c0 -5 5 -7 10 -4 6 3 10 8 10 11 0 2 -4 4 -10 4 -5 0
-10 -5 -10 -11z"/>
<path d="M8430 5560 c0 -5 5 -10 11 -10 5 0 7 5 4 10 -3 6 -8 10 -11 10 -2 0
-4 -4 -4 -10z"/>
<path d="M7725 5491 c-3 -5 -1 -12 5 -16 5 -3 10 1 10 9 0 18 -6 21 -15 7z"/>
<path d="M10801 5482 c-7 -13 -6 -19 2 -19 7 0 13 9 13 19 0 10 -1 18 -3 18
-1 0 -7 -8 -12 -18z"/>
<path d="M8415 5463 c4 -10 7 -26 7 -35 0 -10 2 -18 6 -18 4 0 7 16 7 35 0 23
-5 35 -14 35 -9 0 -11 -6 -6 -17z"/>
<path d="M7770 5430 c0 -5 5 -10 11 -10 5 0 7 5 4 10 -3 6 -8 10 -11 10 -2 0
-4 -4 -4 -10z"/>
<path d="M6058 5404 c-3 -5 3 -17 14 -26 21 -21 24 -10 5 17 -8 10 -16 14 -19
9z"/>
<path d="M10720 5392 c0 -12 3 -12 15 -2 8 7 15 13 15 15 0 1 -7 2 -15 2 -8 0
-15 -7 -15 -15z"/>
<path d="M8410 5330 c6 -11 12 -20 13 -20 2 0 3 9 3 20 0 11 -6 20 -13 20 -11
0 -11 -5 -3 -20z"/>
<path d="M7935 5321 c-3 -5 0 -13 6 -17 8 -4 9 -3 5 4 -4 7 -2 12 3 12 6 0 11
-5 11 -11 0 -5 5 -7 10 -4 13 8 3 25 -15 25 -8 0 -16 -4 -20 -9z"/>
<path d="M6155 5280 c3 -5 8 -10 11 -10 2 0 4 5 4 10 0 6 -5 10 -11 10 -5 0
-7 -4 -4 -10z"/>
<path d="M8163 5183 c11 -10 58 -13 52 -2 -4 5 -18 9 -32 9 -15 0 -23 -3 -20
-7z"/>
<path d="M10314 5179 c-5 -8 -3 -9 6 -4 7 4 16 2 22 -6 8 -12 9 -12 6 0 -6 20
-24 25 -34 10z"/>
<path d="M6280 5140 c0 -5 5 -10 11 -10 5 0 7 5 4 10 -3 6 -8 10 -11 10 -2 0
-4 -4 -4 -10z"/>
<path d="M9934 5065 c-18 -13 -18 -14 4 -8 12 3 25 9 28 14 8 14 -10 11 -32
-6z"/>
<path d="M6410 5006 c0 -2 7 -7 16 -10 8 -3 12 -2 9 4 -6 10 -25 14 -25 6z"/>
<path d="M11895 4870 c3 -5 8 -10 11 -10 2 0 4 5 4 10 0 6 -5 10 -11 10 -5 0
-7 -4 -4 -10z"/>
<path d="M6606 4847 c3 -10 9 -15 12 -12 3 3 0 11 -7 18 -10 9 -11 8 -5 -6z"/>
<path d="M11838 4813 c7 -3 16 -2 19 1 4 3 -2 6 -13 5 -11 0 -14 -3 -6 -6z"/>
<path d="M11740 4730 c0 -5 5 -10 11 -10 5 0 7 5 4 10 -3 6 -8 10 -11 10 -2 0
-4 -4 -4 -10z"/>
<path d="M11710 4700 c-9 -6 -10 -10 -3 -10 6 0 15 5 18 10 8 12 4 12 -15 0z"/>
<path d="M6997 4559 c7 -7 15 -10 18 -7 3 3 -2 9 -12 12 -14 6 -15 5 -6 -5z"/>
<path d="M7041 4534 c0 -11 3 -14 6 -6 3 7 2 16 -1 19 -3 4 -6 -2 -5 -13z"/>
<path d="M7090 4485 c0 -8 4 -15 10 -15 5 0 7 7 4 15 -4 8 -8 15 -10 15 -2 0
-4 -7 -4 -15z"/>
<path d="M11076 4423 c-6 -14 -5 -15 5 -6 7 7 10 15 7 18 -3 3 -9 -2 -12 -12z"/>
<path d="M7575 4210 c3 -5 8 -10 11 -10 2 0 4 5 4 10 0 6 -5 10 -11 10 -5 0
-7 -4 -4 -10z"/>
<path d="M7616 4158 c3 -4 9 -8 15 -8 5 0 9 4 9 8 0 5 -7 9 -15 9 -8 0 -12 -4
-9 -9z"/>
<path d="M7682 4154 c-14 -16 -5 -18 17 -5 7 5 9 11 5 14 -5 3 -15 -1 -22 -9z"/>
<path d="M10640 4120 c0 -5 5 -10 10 -10 6 0 10 5 10 10 0 6 -4 10 -10 10 -5
0 -10 -4 -10 -10z"/>
<path d="M10507 4106 c-3 -8 -2 -18 3 -21 13 -8 20 9 11 24 -6 10 -10 9 -14
-3z"/>
<path d="M10340 4028 c0 -11 22 -10 39 1 10 7 7 9 -12 8 -15 -1 -27 -5 -27 -9z"/>
<path d="M10164 3995 c-16 -12 -17 -14 -3 -15 9 0 19 7 23 15 7 19 5 19 -20 0z"/>
<path d="M9710 3926 c7 -7 13 -7 20 0 6 6 3 10 -10 10 -13 0 -16 -4 -10 -10z"/>
<path d="M9440 3699 c0 -5 5 -7 10 -4 6 3 10 8 10 11 0 2 -4 4 -10 4 -5 0 -10
-5 -10 -11z"/>
<path d="M9440 3659 c0 -5 5 -7 10 -4 6 3 10 8 10 11 0 2 -4 4 -10 4 -5 0 -10
-5 -10 -11z"/>
<path d="M9412 3520 c0 -14 2 -19 5 -12 2 6 2 18 0 25 -3 6 -5 1 -5 -13z"/>
<path d="M8040 2589 c0 -5 5 -7 10 -4 6 3 10 8 10 11 0 2 -4 4 -10 4 -5 0 -10
-5 -10 -11z"/>
<path d="M9277 2566 c-4 -10 -1 -13 9 -9 7 3 14 9 14 14 0 14 -17 10 -23 -5z"/>
<path d="M9247 2419 c7 -7 15 -10 18 -7 3 3 -2 9 -12 12 -14 6 -15 5 -6 -5z"/>
<path d="M9213 2165 c0 -8 4 -12 9 -9 5 3 6 10 3 15 -9 13 -12 11 -12 -6z"/>
<path d="M8725 2090 c-3 -5 -1 -10 4 -10 6 0 11 5 11 10 0 6 -2 10 -4 10 -3 0
-8 -4 -11 -10z"/>
<path d="M8760 2070 c0 -5 5 -10 11 -10 5 0 7 5 4 10 -3 6 -8 10 -11 10 -2 0
-4 -4 -4 -10z"/>
<path d="M8898 2023 c7 -3 16 -2 19 1 4 3 -2 6 -13 5 -11 0 -14 -3 -6 -6z"/>
</g>
</svg>
